<?xml version="1.0" encoding="utf-8"?>
<svg version="1.1" id="Слой_1" xmlns="http://www.w3.org/2000/svg" xmlns:xlink="http://www.w3.org/1999/xlink" x="0px" y="0px"
     width="36px" height="36px" viewBox="0 0 36 36" style="enable-background:new 0 0 36 36;" xml:space="preserve">
<g>
	<path class="st0" d="M18,3.3C9.9,3.3,3.3,9.9,3.3,18c0,8.1,6.6,14.7,14.7,14.7S32.7,26.1,32.7,18C32.7,9.9,26.1,3.3,18,3.3z M0,18
		C0,8.1,8.1,0,18,0s18,8.1,18,18c0,9.9-8.1,18-18,18S0,27.9,0,18z"/>
	<path class="st1" d="M19.2,10.3c-0.6-0.6-1.7-0.6-2.3,0c-0.6,0.6-0.6,1.7,0,2.3l3.8,3.8h-9.1c-0.9,0-1.6,0.7-1.6,1.6
		s0.7,1.6,1.6,1.6h9.1l-3.8,3.8c-0.6,0.6-0.6,1.7,0,2.3c0.6,0.6,1.7,0.6,2.3,0l6.5-6.5c0.6-0.6,0.6-1.7,0-2.3L19.2,10.3z"/>
</g>
</svg>
