<svg width="97" height="80" viewBox="0 0 97 80" fill="none" xmlns="http://www.w3.org/2000/svg">
<path d="M31.3579 79.9161C31.7675 79.9161 32.1698 79.75 32.4594 79.4597C32.7491 79.17 32.9158 78.7684 32.9158 78.3582C32.9158 77.9486 32.7491 77.5464 32.4594 77.2573C32.1698 76.967 31.7675 76.8003 31.3579 76.8003C30.9484 76.8003 30.5461 76.967 30.2565 77.2573C29.9668 77.5464 29.8 77.9486 29.8 78.3582C29.8 78.7684 29.9668 79.17 30.2565 79.4597C30.5461 79.75 30.9484 79.9161 31.3579 79.9161Z" fill="#61A41E"/>
<path d="M95.0488 12.4321C94.0055 12.4321 84.6162 12.0844 84.6162 1.13019C84.6162 0.521627 84.0946 0 83.486 0C82.8775 0 82.3558 0.521627 82.3558 1.13019C82.3558 12.0844 72.9665 12.4321 71.9233 12.4321C71.8363 12.4321 71.8363 12.4321 71.8363 12.4321C71.2278 12.5191 70.7931 12.9538 70.7931 13.5623C70.7931 14.1709 71.3147 14.6925 71.9233 14.6925C73.0535 14.6925 82.3558 15.0403 82.3558 25.9945C82.3558 26.603 82.8775 27.1246 83.486 27.1246C84.0077 27.2985 84.5293 26.7769 84.5293 26.0814C84.5293 15.1272 93.9186 14.7795 94.9618 14.7795H95.0488C95.6573 14.7795 96.179 14.2578 96.179 13.5623C96.179 12.9538 95.6573 12.4321 95.0488 12.4321ZM83.3991 19.8219C81.9211 16.5182 79.4869 14.6925 77.1396 13.6493C79.6608 12.606 82.0081 10.6064 83.3991 7.47666C84.7901 10.7803 87.3113 12.606 89.6586 13.6493C87.1374 14.6925 84.7901 16.6921 83.3991 19.8219Z" fill="#111111"/>
<path d="M13.7573 41.59C13.2086 41.59 8.27031 41.4112 8.27031 35.7811C8.27031 35.4683 7.99595 35.2002 7.67588 35.2002C7.3558 35.2002 7.08145 35.4683 7.08145 35.7811C7.08145 41.4112 2.14313 41.59 1.59443 41.59C1.5487 41.59 1.5487 41.59 1.5487 41.59C1.22863 41.6347 1 41.8581 1 42.1709C1 42.4836 1.27435 42.7518 1.59443 42.7518C2.18885 42.7518 7.08145 42.9305 7.08145 48.5606C7.08145 48.8734 7.3558 49.1415 7.67588 49.1415C7.95023 49.2309 8.22458 48.9628 8.22458 48.6053C8.22458 42.9752 13.1629 42.7964 13.7116 42.7964H13.7573C14.0774 42.7964 14.3518 42.5283 14.3518 42.1709C14.3518 41.8581 14.0774 41.59 13.7573 41.59ZM7.63015 45.3881C6.85282 43.6901 5.57252 42.7518 4.33794 42.2155C5.66397 41.6793 6.89855 40.6516 7.63015 39.043C8.36176 40.741 9.68779 41.6793 10.9224 42.2155C9.59634 42.7518 8.36176 43.7795 7.63015 45.3881Z" fill="#111111" stroke="#111111"/>
<path d="M78.1856 44.7664V26.4632C78.1856 22.5191 76.0789 19.3101 73.4896 19.3101H31.7134C31.1225 19.3101 30.6438 20.0393 30.6438 20.9393C30.6438 21.8393 31.1225 22.5686 31.7134 22.5686H72.6896C74.0995 22.5686 75.2464 24.3156 75.2464 26.4632V44.7093H71.2448V40.9769C71.2448 37.0589 69.1522 33.8714 66.5801 33.8714H55.3243C52.7522 33.8714 50.6597 37.0589 50.6597 40.9769V44.7093H43.5884V40.9769C43.5884 37.0589 41.4959 33.8714 38.9239 33.8714H27.668C25.0959 33.8714 23.0033 37.0589 23.0033 40.9769V44.7093H19.0017V26.4632C19.0017 24.3156 20.1486 22.5686 21.5585 22.5686H27.4349C28.0257 22.5686 28.5045 21.8393 28.5045 20.9393C28.5045 20.0393 28.0257 19.3101 27.4349 19.3101H20.7585C18.1692 19.3101 16.0626 22.5188 16.0626 26.4632V44.7664C13.0566 45.2719 10.7102 49.1628 10.7102 53.8742V78.3706C10.7102 79.2706 11.1891 79.9999 11.7798 79.9999H25.0056C25.9054 79.9999 26.6349 79.2704 26.6349 78.3706C26.6349 77.4708 25.9054 76.7413 25.0056 76.7413H13.6494V59.7554H67.4999C68.0908 59.7554 68.5695 59.0262 68.5695 58.1262C68.5695 57.2262 68.0908 56.4969 67.4999 56.4969H13.6494V53.8744C13.6494 50.6176 14.5887 47.9682 16.7267 47.9682H77.5213C79.6593 47.9682 80.5988 50.6176 80.5988 53.8744V56.4969H71.7783C71.1874 56.4969 70.7087 57.2262 70.7087 58.1262C70.7087 59.0262 71.1874 59.7554 71.7783 59.7554H80.5988V76.7413H37.3427C36.4428 76.7413 35.7134 77.4708 35.7134 78.3706C35.7134 79.2704 36.4428 79.9999 37.3427 79.9999H82.4684C83.0591 79.9999 83.5379 79.2706 83.5379 78.3706V53.8742C83.5379 49.1628 81.1915 45.2719 78.1856 44.7664ZM53.5989 40.9771C53.5989 38.8558 54.7317 37.1301 56.1243 37.1301H65.7801C67.1727 37.1301 68.3056 38.8558 68.3056 40.9771V44.7095H53.5989V40.9771ZM25.9425 40.9771C25.9425 38.8558 27.0754 37.1301 28.4681 37.1301H38.1239C39.5165 37.1301 40.6492 38.8558 40.6492 40.9771V44.7095H25.9425V40.9771Z" fill="#61A41E"/>
</svg>
