<svg width="79" height="80" viewBox="0 0 79 80" fill="none" xmlns="http://www.w3.org/2000/svg">
<path d="M66.3579 15.9156C66.7674 15.9156 67.1697 15.7495 67.4594 15.4592C67.749 15.1695 67.9158 14.7679 67.9158 14.3577C67.9158 13.9481 67.749 13.5459 67.4594 13.2568C67.1697 12.9665 66.7674 12.7998 66.3579 12.7998C65.9483 12.7998 65.5461 12.9665 65.2564 13.2568C64.9667 13.5459 64.8 13.9481 64.8 14.3577C64.8 14.7679 64.9667 15.1695 65.2564 15.4592C65.5461 15.7495 65.9483 15.9156 66.3579 15.9156Z" fill="#61A41E"/>
<path fill-rule="evenodd" clip-rule="evenodd" d="M30.4874 24.7998C28.696 24.7998 27.0743 25.5255 25.9 26.6998C24.7263 27.8741 24 29.4959 24 31.2872C24 33.078 24.7263 34.7003 25.9 35.874C27.0743 37.0483 28.696 37.7747 30.4874 37.7747C32.2788 37.7747 33.9005 37.0483 35.0748 35.874C36.2485 34.7003 36.9749 33.078 36.9749 31.2872C36.9749 29.4959 36.2485 27.8741 35.0748 26.6998C33.9005 25.5255 32.2788 24.7998 30.4874 24.7998ZM32.8684 28.9062C32.2593 28.2971 31.4176 27.9199 30.4874 27.9199C29.5579 27.9199 28.7156 28.2971 28.1064 28.9062C27.4973 29.5154 27.1207 30.3571 27.1207 31.2872C27.1207 32.2168 27.4973 33.0591 28.1064 33.6682C28.7156 34.2767 29.5579 34.6539 30.4874 34.6539C31.4176 34.6539 32.2593 34.2773 32.8684 33.6682C33.4775 33.0591 33.8541 32.2168 33.8541 31.2872C33.8541 30.3571 33.4775 29.5154 32.8684 28.9062ZM47.3832 25.5066L29.1892 53.0994C28.718 53.8165 28.917 54.7797 29.6342 55.2509C30.3513 55.722 31.3145 55.5231 31.7856 54.8059L49.9796 27.2131C50.4508 26.496 50.2518 25.5328 49.5347 25.0616C48.8175 24.5905 47.8544 24.7894 47.3832 25.5066ZM48.6814 42.5378C46.89 42.5378 45.2677 43.2642 44.094 44.4379C42.9203 45.6122 42.194 47.2345 42.194 49.0253C42.194 50.8167 42.9203 52.4384 44.094 53.6127C45.2683 54.7864 46.89 55.5127 48.6814 55.5127C50.4728 55.5127 52.0945 54.7864 53.2682 53.6127C54.4425 52.4384 55.1688 50.8167 55.1688 49.0253C55.1688 47.2339 54.4425 45.6122 53.2682 44.4379C52.0945 43.2642 50.4728 42.5378 48.6814 42.5378ZM51.0618 46.6443C50.4532 46.0358 49.611 45.6586 48.6814 45.6586C47.7512 45.6586 46.9095 46.0352 46.3004 46.6443C45.6913 47.2534 45.3141 48.0957 45.3141 49.0253C45.3141 49.9554 45.6913 50.7971 46.3004 51.4062C46.9095 52.0154 47.7512 52.392 48.6814 52.392C49.611 52.392 50.4532 52.0154 51.0618 51.4062C51.6715 50.7971 52.0481 49.9554 52.0481 49.0253C52.0481 48.0957 51.6715 47.254 51.0618 46.6443Z" fill="#111111"/>
<path d="M39.4047 0C41.2834 0 42.5798 1.48132 43.864 2.94861C44.6245 3.81775 45.3783 4.67896 45.8397 4.76257C46.3121 4.84863 47.3265 4.28528 48.3348 3.72498C50.0029 2.79785 51.6618 1.87683 53.3604 2.50916C55.078 3.1488 55.7213 4.94934 56.3621 6.74377L56.3642 6.74958C56.7432 7.80964 57.1202 8.86452 57.4809 9.07593C57.8425 9.2875 58.9532 9.09343 60.0628 8.89954L60.0664 8.89893C61.9316 8.57239 63.7944 8.24646 65.1774 9.41284C65.8253 10.4471 65.0819 11.7902 63.8614 11.7902H63.1663C62.9036 11.5688 61.7613 11.768 60.6141 11.9681L60.6022 11.9702C58.936 12.262 57.2679 12.5537 55.9086 11.7572C54.5585 10.9668 53.9921 9.38171 53.4245 7.79175C53.0253 6.67419 52.6243 5.55237 52.2752 5.42236C51.9212 5.29053 50.8867 5.86487 49.8466 6.44287L49.8458 6.44331C48.3532 7.27263 46.8532 8.10603 45.291 7.82227C43.7525 7.54287 42.6438 6.27636 41.5257 4.99897L41.5239 4.99695L41.5231 4.99604C40.7061 4.0625 39.8819 3.12073 39.4054 3.12073C38.9282 3.12073 38.104 4.0625 37.287 4.99605L37.2862 4.99695C36.1674 6.27502 35.0578 7.54272 33.5185 7.82227C31.956 8.10608 30.4558 7.27234 28.9635 6.44287C27.9234 5.86487 26.8889 5.29053 26.5349 5.42236C26.1857 5.55237 25.7847 6.67419 25.3856 7.79175L25.3845 7.79485C24.8166 9.38378 24.2507 10.9673 22.9014 11.7572C21.5422 12.5537 19.8735 12.262 18.2072 11.9702L18.1981 11.9686C17.0506 11.7683 15.9061 11.5686 15.6444 11.7902C15.3722 12.0197 15.377 13.186 15.3825 14.3518C15.3905 16.0455 15.3978 17.7393 14.3907 18.9337C13.3867 20.1245 11.7192 20.4053 10.0499 20.686L10.0435 20.6871C8.89022 20.8815 7.73571 21.076 7.55599 21.3837C7.37655 21.6895 7.76839 22.796 8.16207 23.9056C8.72848 25.5042 9.29671 27.1075 8.74496 28.5883C8.20065 30.0497 6.74551 30.8962 5.28223 31.7475L5.28121 31.748C4.23751 32.3547 3.18709 32.9657 3.11446 33.3673C3.04071 33.7738 3.78925 34.7166 4.54562 35.6692L4.54879 35.6732C5.62301 37.0251 6.70638 38.3887 6.70638 40C6.70638 41.6108 5.62455 42.9729 4.55109 44.3245L4.54879 44.3274C3.79134 45.2808 3.04061 46.2256 3.11446 46.6333C3.18692 47.034 4.23254 47.6424 5.2738 48.2483L5.28121 48.2526C6.74483 49.1034 8.20052 49.95 8.74496 51.4117C9.29671 52.8931 8.72848 54.4965 8.16207 56.095C7.76839 57.2046 7.37655 58.3105 7.55599 58.6169C7.73604 58.9246 8.89388 59.1199 10.0499 59.314L10.0533 59.3146C11.7221 59.5957 13.3874 59.8763 14.3907 61.0669C15.3978 62.2607 15.3905 63.9545 15.3825 65.6488C15.377 66.8146 15.3722 67.9803 15.6444 68.2104C15.9074 68.432 17.0567 68.2312 18.2072 68.0298L18.2111 68.0291C19.8761 67.7382 21.5432 67.4469 22.9014 68.2428C24.2515 69.0332 24.818 70.6183 25.3856 72.2083C25.7847 73.3258 26.1857 74.4482 26.5349 74.5776C26.8889 74.7095 27.9234 74.1351 28.9635 73.5571L28.9653 73.5561C30.457 72.7276 31.9567 71.8946 33.5185 72.1783C35.0584 72.4573 36.1674 73.725 37.2862 75.0037L37.287 75.0046C38.104 75.9381 38.9282 76.8799 39.4054 76.8799C39.8819 76.8799 40.7061 75.9381 41.5231 75.0046L41.5239 75.0037C42.6427 73.725 43.7523 72.4573 45.291 72.1783C46.8535 71.8945 48.3543 72.7283 49.8466 73.5571C50.8867 74.1351 51.9212 74.7095 52.2752 74.5776C52.6243 74.4482 53.0253 73.3258 53.4245 72.2083L53.4253 72.2061C53.9933 70.6169 54.5592 69.0335 55.908 68.2428C57.2679 67.4463 58.936 67.738 60.6022 68.0298L60.6064 68.0305C61.7561 68.2317 62.903 68.4324 63.1663 68.2104C63.4379 67.9803 63.4331 66.8146 63.4276 65.6488C63.4196 63.9551 63.4123 62.2607 64.4194 61.0669C65.4226 59.8764 67.0876 59.5958 68.7556 59.3146L68.7596 59.314C69.9156 59.1199 71.0741 58.9246 71.2541 58.6169C71.4335 58.3105 71.0417 57.2046 70.648 56.095C70.0816 54.4965 69.5134 52.8931 70.0651 51.4117C70.6088 49.9504 72.0643 49.1039 73.5269 48.2534L73.5283 48.2526L73.5295 48.2518C74.5734 47.6448 75.6224 47.0348 75.6956 46.6333C75.7695 46.2256 75.0188 45.2808 74.2613 44.3274L74.259 44.3245C73.1855 42.9729 72.1037 41.6108 72.1037 40C72.1037 38.3887 73.1871 37.0251 74.2613 35.6732L74.2645 35.6692C75.0208 34.7166 75.7694 33.7738 75.6956 33.3673C75.6224 32.9657 74.5726 32.3547 73.5283 31.748L73.5245 31.7459C72.0628 30.8952 70.6085 30.0488 70.0651 28.5883C69.5134 27.1075 70.0816 25.5042 70.648 23.9056C71.0417 22.796 71.4335 21.6895 71.2541 21.3837C71.0743 21.0759 69.919 20.8813 68.7647 20.6869L68.7596 20.686L68.5911 20.5465C67.5233 19.6619 67.9234 17.938 69.2717 17.6141L69.2737 17.6145C71.145 17.9299 73.019 18.2458 73.936 19.8108C74.8509 21.3727 74.2198 23.1543 73.5863 24.942C73.206 26.0144 72.8245 27.0905 72.9783 27.5037C73.1321 27.9154 74.1068 28.4825 75.087 29.0528L75.0889 29.054C76.7515 30.0208 78.4239 30.993 78.7553 32.8186C79.0811 34.6122 77.8964 36.104 76.7006 37.6097L76.6991 37.6117L76.6969 37.6144C75.964 38.5376 75.2251 39.4683 75.2251 40C75.2251 40.5323 75.964 41.463 76.6969 42.3862L76.6991 42.3889L76.6997 42.3897C77.8957 43.8952 79.0812 45.3873 78.7553 47.1814C78.4239 49.007 76.7515 49.9799 75.0889 50.9467C74.1081 51.5167 73.1322 52.0844 72.9783 52.4969C72.8245 52.9102 73.206 53.9862 73.5863 55.0586C74.2198 56.8463 74.8509 58.6279 73.936 60.1892C73.0186 61.7554 71.1436 62.0709 69.2717 62.3859L69.2656 62.3869C68.1647 62.5727 67.066 62.7582 66.7961 63.078C66.5263 63.3983 66.5312 64.5128 66.536 65.6291L66.5361 65.6366C66.5446 67.5317 66.5532 69.4269 65.1774 70.5878C63.7944 71.7542 61.9316 71.4282 60.0664 71.1017L60.0628 71.1011C58.9532 70.9072 57.8425 70.7131 57.4809 70.9247C57.1202 71.1361 56.7432 72.191 56.3642 73.251L56.3621 73.2568C55.7213 75.0513 55.078 76.8518 53.3604 77.4915C51.6618 78.1238 50.0029 77.2021 48.3348 76.2756C47.3265 75.7153 46.3127 75.152 45.8397 75.238C45.3786 75.3216 44.6256 76.1815 43.8657 77.0494L43.864 77.0514C42.5798 78.5187 41.2834 80 39.4047 80C37.5274 80 36.2313 78.5198 34.9469 77.053L34.9455 77.0514C34.1856 76.1823 33.4318 75.321 32.9698 75.2374C32.4979 75.1515 31.4856 75.7136 30.4776 76.2734L30.4747 76.275C28.8066 77.2021 27.1483 78.1232 25.4497 77.4908C23.7326 76.8516 23.0897 75.053 22.4486 73.2597L22.4473 73.2562C22.0683 72.1948 21.6899 71.1359 21.3286 70.9241C20.9672 70.7123 19.8546 70.907 18.7431 71.1017L18.7414 71.102C16.8768 71.4278 15.0147 71.7532 13.632 70.5872C12.2563 69.4263 12.2649 67.5311 12.2734 65.636C12.2789 64.5172 12.2838 63.3984 12.0134 63.078C11.743 62.757 10.6413 62.5714 9.5378 62.3859C7.66585 62.0709 5.79085 61.7548 4.8735 60.1892C3.95919 58.6273 4.59029 56.8457 5.22384 55.058C5.60409 53.9856 5.98495 52.9095 5.83114 52.4963C5.67794 52.0844 4.70199 51.5167 3.72054 50.946L3.7178 50.9445C2.05672 49.9782 0.385399 49.006 0.0547705 47.1814C-0.271157 45.387 0.914145 43.894 2.11043 42.3883C2.84469 41.4642 3.58504 40.5322 3.58504 39.9994C3.58504 39.4672 2.84469 38.5352 2.11043 37.6111L2.10911 37.6094C0.913271 36.1036 -0.271037 34.6124 0.0547705 32.818C0.385399 30.9934 2.05672 30.0212 3.7178 29.0549L3.72054 29.0533C4.70199 28.4827 5.67794 27.915 5.83114 27.5031C5.98495 27.0898 5.60409 26.0138 5.22384 24.9414L5.22341 24.9402C4.59001 23.1529 3.95879 21.3717 4.8735 19.8108C5.79085 18.2446 7.66585 17.9291 9.5378 17.6141L9.54143 17.6135C10.6437 17.4276 11.7433 17.2421 12.0134 16.922C12.2838 16.601 12.2789 15.4822 12.2734 14.3634C12.2649 12.4683 12.2563 10.5725 13.632 9.41284C15.0151 8.24646 16.8779 8.57178 18.7431 8.89832L18.7479 8.89916C19.8578 9.09297 20.9678 9.2868 21.3286 9.07532C21.6899 8.86414 22.0683 7.80518 22.4473 6.74316C23.0882 4.94934 23.7321 3.14819 25.4497 2.50854C27.1477 1.87644 28.8055 2.79722 30.473 3.72341L30.4747 3.72437L30.4776 3.726C31.4856 4.28577 32.4979 4.84794 32.9698 4.76196C33.4318 4.67834 34.1856 3.81714 34.9455 2.94861L34.9469 2.94698C36.2313 1.48023 37.5274 0 39.4047 0Z" fill="#61A41E"/>
</svg>
