<svg width="72" height="80" viewBox="0 0 72 80" fill="none" xmlns="http://www.w3.org/2000/svg">
<path fill-rule="evenodd" clip-rule="evenodd" d="M70.6589 7.63953C70.1261 7.04334 69.4627 6.56472 68.715 6.23704C67.9674 5.90937 67.1534 5.74052 66.3299 5.74229H59.8781V3.49565C59.8768 2.56893 59.4885 1.68053 58.7985 1.02524C58.1084 0.369949 57.1728 0.00125487 56.1969 0H48.5802C47.8074 0 47.181 0.626448 47.181 1.39921C47.181 2.17197 47.8074 2.79842 48.5802 2.79842H56.1969C56.3915 2.79884 56.578 2.87243 56.7156 3.0031C56.8532 3.13376 56.9307 3.31086 56.9311 3.49565V12.4585C56.9311 21.7723 54.6734 30.5091 50.5759 37.0561C46.6215 43.3802 41.4451 46.8585 36.0023 46.8585C30.5595 46.8585 25.3814 43.3802 21.4254 37.0561C17.3279 30.5138 15.0701 21.7739 15.0701 12.4601V3.49565C15.0706 3.31086 15.1481 3.13376 15.2857 3.0031C15.4233 2.87243 15.6098 2.79884 15.8044 2.79842H37.357C38.1297 2.79842 38.7562 2.17197 38.7562 1.39921C38.7562 0.626448 38.1297 0 37.357 0L15.8061 0C14.8298 0.000836542 13.8938 0.369346 13.2034 1.02468C12.5129 1.68002 12.1244 2.56866 12.1231 3.49565V5.73913H5.66299C4.83966 5.73811 4.02597 5.90728 3.27842 6.23491C2.53087 6.56253 1.86738 7.04076 1.33404 7.63636C0.807695 8.22389 0.422319 8.91316 0.204669 9.65632C-0.0129803 10.3995 -0.0576881 11.1787 0.07365 11.9399C1.61209 20.9186 7.57939 28.8806 16.0358 33.2379L16.1907 33.3186L16.2589 33.4767C17.0113 35.2048 17.8915 36.8801 18.8929 38.4901C21.9682 43.404 25.8359 46.8696 30.08 48.5328L30.3563 48.6403L30.3863 48.9233C30.6106 51.104 29.9905 53.2875 28.6421 55.0655C27.2938 56.8434 25.3095 58.0941 23.0604 58.5834L23.0188 58.5945C22.6971 58.6669 22.4106 58.8405 22.206 59.087C22.0014 59.3336 21.8905 59.6386 21.8916 59.9526V69.0213H17.7291C16.2922 69.0226 14.9145 69.5652 13.8984 70.53C12.8823 71.4949 12.3109 72.8031 12.3096 74.1676V78.604C12.3109 78.9746 12.4669 79.3297 12.7434 79.5914C13.0199 79.8531 13.3944 80 13.7848 80H58.4063C58.797 79.9996 59.1715 79.852 59.4477 79.5897C59.724 79.3274 59.8794 78.9718 59.8798 78.6008V74.1644C59.8785 72.7999 59.3071 71.4917 58.291 70.5269C57.2749 69.562 55.8972 69.0194 54.4603 69.0182H50.2978V59.9494C50.2987 59.6346 50.1872 59.3289 49.9816 59.082C49.776 58.835 49.4884 58.6615 49.1656 58.5897L49.134 58.5818C46.866 58.0951 44.8659 56.833 43.5148 55.0361C42.1638 53.2391 41.5563 51.0329 41.8081 48.8379L41.8397 48.5613L42.1078 48.4538C46.2786 46.77 50.083 43.3233 53.11 38.4933C54.1105 36.8822 54.9907 35.2064 55.744 33.4783L55.8106 33.3202L55.9654 33.2395C64.4219 28.8822 70.3892 20.9202 71.9276 11.9415C72.0579 11.18 72.0119 10.4006 71.7928 9.65767C71.5737 8.91473 71.1868 8.22604 70.6589 7.63953ZM2.98237 11.4893C4.12631 18.1228 7.84988 24.1073 13.4168 28.2593L14.6089 29.1526L14.2093 27.7613C12.8008 22.7711 12.0992 17.6248 12.1231 12.4585V8.53755H5.66299C5.26788 8.53806 4.8776 8.62004 4.51913 8.77782C4.16065 8.9356 3.84253 9.16542 3.58676 9.45138C3.33421 9.72786 3.14909 10.0539 3.04461 10.4062C2.94013 10.7585 2.91888 11.1283 2.98237 11.4893ZM56.2064 72.5047C55.7429 72.0645 55.1142 71.817 54.4586 71.8166H17.7308C17.0752 71.817 16.4465 72.0645 15.9829 72.5047C15.5194 72.9449 15.2587 73.5419 15.2583 74.1644V77.2016H56.9311V74.1644C56.9307 73.5419 56.67 72.9449 56.2064 72.5047ZM47.3508 69.0134V61.3439H24.8386V69.0134H47.3508ZM42.8254 58.5423L42.0662 57.7518V57.7565C40.0064 55.6231 38.8418 52.8466 38.7928 49.9526V49.4103L38.2284 49.4893C36.808 49.694 35.3638 49.702 33.941 49.513L33.3816 49.4419V49.9779C33.3319 52.8556 32.1808 55.6178 30.1432 57.7486L30.0134 57.8846V58.5423H42.8254ZM58.5844 28.2593C64.151 24.107 67.8745 18.1227 69.0189 11.4893C69.0824 11.1283 69.0611 10.7585 68.9566 10.4062C68.8522 10.0539 68.6671 9.72786 68.4145 9.45138C68.1582 9.16481 67.8393 8.93463 67.4799 8.77683C67.1205 8.61902 66.7292 8.53737 66.3333 8.53755H59.8781V12.4585C59.9028 17.6248 59.2012 22.7712 57.7919 27.7613L57.3923 29.1526L58.5844 28.2593Z" fill="#61A41E"/>
<path d="M29.6727 11.3027C30.225 11.3027 30.6727 11.7504 30.6727 12.3027V28.0103C30.6727 28.5625 30.225 29.0103 29.6727 29.0103H28.6092C28.0569 29.0103 27.6092 28.5625 27.6092 28.0103V15.7192C27.6092 15.0611 26.9845 14.5825 26.3491 14.7537L24.7908 15.1734C24.2685 15.3141 23.729 15.014 23.5731 14.496L23.3863 13.875C23.2307 13.3578 23.5138 12.8106 24.0258 12.6388L27.854 11.3547C27.9565 11.3203 28.0639 11.3027 28.172 11.3027H29.6727Z" fill="#111111"/>
<path d="M33.0703 20.1562C33.0703 14.6922 35.7076 10.9736 40.3962 10.9736C45.0848 10.9736 47.7222 14.6922 47.7222 20.1562C47.7222 25.6203 45.0832 29.3389 40.3962 29.3389C35.7093 29.3389 33.0703 25.6203 33.0703 20.1562ZM44.6586 20.1562C44.6586 16.0835 43.1601 13.8068 40.3962 13.8068C37.6523 13.8068 36.1339 16.0835 36.1339 20.1562C36.1339 24.229 37.6523 26.5056 40.3962 26.5056C43.1668 26.5056 44.6586 24.229 44.6586 20.1562Z" fill="#111111"/>
<path d="M42.9242 3.11579C43.3555 3.11579 43.7791 2.94965 44.0842 2.65938C44.3892 2.3697 44.5648 1.96806 44.5648 1.55789C44.5648 1.14834 44.3892 0.746086 44.0842 0.457023C43.7791 0.166743 43.3555 0 42.9242 0C42.4929 0 42.0693 0.166743 41.7642 0.457023C41.4592 0.746086 41.2836 1.14834 41.2836 1.55789C41.2836 1.96806 41.4592 2.3697 41.7642 2.65938C42.0693 2.94965 42.4929 3.11579 42.9242 3.11579Z" fill="#61A41E"/>
</svg>
