<svg width="80" height="80" viewBox="0 0 80 80" fill="none" xmlns="http://www.w3.org/2000/svg">
<path d="M69.0095 63.6273C68.9545 64.055 69.0652 64.4964 69.3141 64.836C69.5624 65.1756 69.9384 65.401 70.3452 65.4534C70.7514 65.5057 71.1728 65.3829 71.4984 65.1173C71.8253 64.8518 72.0448 64.4529 72.0998 64.0251C72.1549 63.5974 72.0436 63.1559 71.7947 62.8163C71.5469 62.4768 71.1704 62.2513 70.7642 62.199C70.3574 62.1466 69.9366 62.2695 69.6103 62.5351C69.2835 62.8006 69.0646 63.1995 69.0095 63.6273Z" fill="#61A41E"/>
<path d="M55.4071 20.9994C55.405 18.9404 54.5861 16.9663 53.1302 15.5103C51.6742 14.0544 49.7001 13.2355 47.6411 13.2334H40.4743C37.9699 18.2421 37.2806 19.6002 31.4324 23.3994C29.2695 24.8034 26.8174 26.3955 24.332 28.9457C21.5351 31.8152 20.5138 35.9496 21.7849 39.9907C23.1826 44.4334 27.3343 47.4042 32.1359 47.4026H32.226C35.4861 47.3773 37.3391 46.2437 38.8268 45.3314C39.9051 44.6706 40.5565 44.2974 41.4355 44.2974C42.2482 44.2974 42.5565 44.5883 43.2363 45.3061C44.0616 46.1789 45.1905 47.3709 47.5541 47.4026H47.6521C51.2679 47.4026 54.5217 44.7828 55.2411 41.2729C55.3663 40.6583 55.4193 40.0311 55.3992 39.4041L55.4071 20.9994ZM52.196 40.6468C51.7676 42.7211 49.7454 44.3243 47.5889 44.2959C46.5391 44.2832 46.166 43.8879 45.4861 43.1717C44.6956 42.3354 43.6126 41.1907 41.4292 41.1907C39.6316 41.1907 38.3936 41.948 37.1968 42.6832C35.8577 43.5022 34.5944 44.2785 32.196 44.2959H32.1296C28.694 44.2959 25.7296 42.1962 24.7415 39.0563C23.8355 36.1773 24.517 33.2065 26.5502 31.1117C28.7952 28.8097 30.9928 27.3836 33.1177 26.0018C37.5446 23.1306 39.9162 21.2919 42.3889 16.337H47.6411C48.8765 16.3382 50.0611 16.8295 50.9349 17.7029C51.8086 18.5764 52.3003 19.7608 52.3019 20.9962V33.42C50.8049 32.3002 48.9544 31.7577 47.0898 31.8918C45.2252 32.026 43.4714 32.8279 42.1502 34.1504L44.3462 36.3464C45.0599 35.6339 45.9854 35.1719 46.9838 35.0297C47.9823 34.8875 48.9999 35.0728 49.8842 35.5578C50.7685 36.0427 51.4717 36.8013 51.8885 37.7196C52.3053 38.638 52.4132 39.6667 52.196 40.6516V40.6468Z" fill="#111111"/>
<path d="M31.4957 51.2948L29.7724 53.8798C30.0711 54.0788 30.316 54.3486 30.4854 54.6651C30.6548 54.9816 30.7435 55.335 30.7435 55.694C30.7435 56.053 30.6548 56.4064 30.4854 56.7229C30.316 57.0394 30.0711 57.3091 29.7724 57.5082C29.0481 57.9908 28.4542 58.6448 28.0434 59.4121C27.6327 60.1794 27.4177 61.0363 27.4177 61.9066C27.4177 62.777 27.6327 63.6339 28.0434 64.4012C28.4542 65.1685 29.0481 65.8225 29.7724 66.3051L31.4957 63.7153C31.197 63.5162 30.9521 63.2465 30.7826 62.93C30.6132 62.6135 30.5246 62.2601 30.5246 61.9011C30.5246 61.5421 30.6132 61.1887 30.7826 60.8722C30.9521 60.5557 31.197 60.286 31.4957 60.0869C32.22 59.6043 32.8139 58.9503 33.2247 58.183C33.6354 57.4157 33.8504 56.5588 33.8504 55.6885C33.8504 54.8181 33.6354 53.9612 33.2247 53.1939C32.8139 52.4266 32.22 51.7726 31.4957 51.29V51.2948Z" fill="#111111"/>
<path d="M39.2618 51.2948L37.5385 53.8798C37.8372 54.0788 38.0821 54.3486 38.2516 54.6651C38.421 54.9816 38.5096 55.335 38.5096 55.694C38.5096 56.053 38.421 56.4064 38.2516 56.7229C38.0821 57.0394 37.8372 57.3091 37.5385 57.5082C36.8142 57.9908 36.2203 58.6448 35.8095 59.4121C35.3988 60.1794 35.1838 61.0363 35.1838 61.9066C35.1838 62.777 35.3988 63.6339 35.8095 64.4012C36.2203 65.1685 36.8142 65.8225 37.5385 66.3051L39.2618 63.7153C38.9631 63.5162 38.7182 63.2465 38.5488 62.93C38.3794 62.6135 38.2907 62.2601 38.2907 61.9011C38.2907 61.5421 38.3794 61.1887 38.5488 60.8722C38.7182 60.5557 38.9631 60.286 39.2618 60.0869C39.9861 59.6043 40.58 58.9503 40.9908 58.183C41.4015 57.4157 41.6165 56.5588 41.6165 55.6885C41.6165 54.8181 41.4015 53.9612 40.9908 53.1939C40.58 52.4266 39.9861 51.7726 39.2618 51.29V51.2948Z" fill="#111111"/>
<path d="M47.0278 51.2948L45.3045 53.8798C45.6032 54.0788 45.8481 54.3486 46.0175 54.6651C46.187 54.9816 46.2756 55.335 46.2756 55.694C46.2756 56.053 46.187 56.4064 46.0175 56.7229C45.8481 57.0394 45.6032 57.3091 45.3045 57.5082C44.5802 57.9908 43.9863 58.6448 43.5755 59.4121C43.1648 60.1794 42.9498 61.0363 42.9498 61.9066C42.9498 62.777 43.1648 63.6339 43.5755 64.4012C43.9863 65.1685 44.5802 65.8225 45.3045 66.3051L47.0278 63.7153C46.7291 63.5162 46.4842 63.2465 46.3147 62.93C46.1453 62.6135 46.0567 62.2601 46.0567 61.9011C46.0567 61.5421 46.1453 61.1887 46.3147 60.8722C46.4842 60.5557 46.7291 60.286 47.0278 60.0869C47.7521 59.6043 48.346 58.9503 48.7568 58.183C49.1675 57.4157 49.3825 56.5588 49.3825 55.6885C49.3825 54.8181 49.1675 53.9612 48.7568 53.1939C48.346 52.4266 47.7521 51.7726 47.0278 51.29V51.2948Z" fill="#111111"/>
<path fill-rule="evenodd" clip-rule="evenodd" d="M68.7037 13.1382L12.7606 69.0829L10.5247 66.847L66.4677 10.9023L68.7037 13.1382Z" fill="#61A41E"/>
<path fill-rule="evenodd" clip-rule="evenodd" d="M40 3.07692C19.6079 3.07692 3.07692 19.6079 3.07692 40C3.07692 60.3921 19.6079 76.9231 40 76.9231C50.142 76.9231 59.3265 72.836 66.0013 66.2154C66.6045 65.6171 67.5786 65.621 68.177 66.2243C68.7753 66.8275 68.7714 67.8016 68.1681 68.4C60.9405 75.5689 50.9862 80 40 80C17.9086 80 0 62.0914 0 40C0 17.9086 17.9086 0 40 0C62.0914 0 80 17.9086 80 40C80 47.4589 77.957 54.4453 74.399 60.425C73.9646 61.1552 73.0204 61.395 72.2903 60.9605C71.5601 60.526 71.3203 59.5819 71.7548 58.8517C75.0374 53.3348 76.9231 46.8899 76.9231 40C76.9231 19.6079 60.3921 3.07692 40 3.07692Z" fill="#61A41E"/>
</svg>
