<?xml version="1.0" encoding="utf-8"?>
<!-- Generator: Adobe Illustrator 23.0.1, SVG Export Plug-In . SVG Version: 6.00 Build 0)  -->
<svg version="1.1" id="Слой_1" xmlns="http://www.w3.org/2000/svg" xmlns:xlink="http://www.w3.org/1999/xlink" x="0px" y="0px"
	 viewBox="0 0 18 18" style="enable-background:new 0 0 18 18;" xml:space="preserve">
<style type="text/css">
	.st0{fill-rule:evenodd;clip-rule:evenodd;fill:#61A41E;}
	.st1{fill-rule:evenodd;clip-rule:evenodd;fill:#FFFFFF;}
</style>
<path class="st0" d="M0,9c0-5,4-9,9-9s9,4,9,9c0,5-4,9-9,9S0,14,0,9z"/>
<path class="st1" d="M13.3,5.8c0.3,0.3,0.3,0.8,0,1.2l-5.1,5.3c-0.3,0.3-0.8,0.3-1.2,0L4.7,9.8c-0.3-0.3-0.3-0.8,0-1.2
	c0.3-0.3,0.8-0.3,1.2,0l1.9,1.9l4.5-4.7C12.5,5.4,13,5.4,13.3,5.8z"/>
</svg>
