<svg width="30" height="30" viewBox="0 0 30 30" fill="none" xmlns="http://www.w3.org/2000/svg">
<circle cx="15" cy="15" r="15" fill="url(#paint0_linear)"/>
<path d="M15.0001 18.8377C14.8168 18.8377 14.6501 18.7711 14.5168 18.6378L10.3501 14.3044C10.2334 14.1711 10.1668 14.0044 10.1668 13.8377C10.1668 13.6544 10.2334 13.4877 10.3668 13.3544C10.6334 13.1044 11.0501 13.1044 11.3168 13.3711L15.0001 17.2044L18.6834 13.3711C18.9334 13.1044 19.3668 13.1044 19.6334 13.3544C19.9001 13.6044 19.9001 14.0378 19.6501 14.3044L15.4834 18.6378C15.3501 18.7711 15.1834 18.8377 15.0001 18.8377Z" fill="white"/>
<defs>
<linearGradient id="paint0_linear" x1="15" y1="0" x2="15" y2="30" gradientUnits="userSpaceOnUse">
<stop stop-color="#7BD223"/>
<stop offset="1" stop-color="#61A41E"/>
</linearGradient>
</defs>
</svg>
