<svg width="30" height="30" viewBox="0 0 30 30" fill="none" xmlns="http://www.w3.org/2000/svg">
<path fill-rule="evenodd" clip-rule="evenodd" d="M15 0C6.71573 0 0 6.71573 0 15C0 23.2843 6.71573 30 15 30C23.2843 30 30 23.2843 30 15C30 6.71573 23.2843 0 15 0ZM11.7022 7.04809C12.5555 7.00926 12.8282 6.99976 15.0009 6.99976H14.9984C17.1717 6.99976 17.4434 7.00926 18.2967 7.04809C19.1484 7.08709 19.7301 7.22192 20.2401 7.41976C20.7668 7.62393 21.2118 7.89727 21.6568 8.34227C22.1018 8.78694 22.3751 9.23328 22.5801 9.75945C22.7768 10.2681 22.9118 10.8495 22.9518 11.7011C22.9901 12.5545 23.0001 12.8271 23.0001 14.9998C23.0001 17.1725 22.9901 17.4445 22.9518 18.2979C22.9118 19.1492 22.7768 19.7307 22.5801 20.2396C22.3751 20.7656 22.1018 21.2119 21.6568 21.6566C21.2123 22.1016 20.7666 22.3756 20.2406 22.5799C19.7316 22.7778 19.1496 22.9126 18.2979 22.9516C17.4446 22.9904 17.1727 22.9999 14.9999 22.9999C12.8273 22.9999 12.5548 22.9904 11.7015 22.9516C10.85 22.9126 10.2685 22.7778 9.75948 22.5799C9.23365 22.3756 8.78731 22.1016 8.3428 21.6566C7.89796 21.2119 7.62463 20.7656 7.42013 20.2394C7.22246 19.7307 7.08762 19.1494 7.04846 18.2977C7.00979 17.4444 7.00012 17.1725 7.00012 14.9998C7.00012 12.8271 7.01012 12.5543 7.04829 11.701C7.08662 10.8496 7.22162 10.2681 7.41996 9.75928C7.62496 9.23328 7.8983 8.78694 8.3433 8.34227C8.78797 7.89743 9.23431 7.6241 9.76048 7.41976C10.2692 7.22192 10.8505 7.08709 11.7022 7.04809Z" fill="white"/>
<path fill-rule="evenodd" clip-rule="evenodd" d="M14.283 8.44145C14.4223 8.44124 14.5723 8.4413 14.734 8.44137L15.0007 8.44145C17.1367 8.44145 17.3899 8.44912 18.2334 8.48745C19.0134 8.52312 19.4367 8.65346 19.7187 8.76296C20.092 8.90796 20.3582 9.08129 20.6381 9.3613C20.9181 9.6413 21.0914 9.90797 21.2367 10.2813C21.3462 10.563 21.4767 10.9863 21.5122 11.7663C21.5506 12.6097 21.5589 12.863 21.5589 14.998C21.5589 17.133 21.5506 17.3864 21.5122 18.2297C21.4766 19.0097 21.3462 19.4331 21.2367 19.7147C21.0917 20.0881 20.9181 20.3539 20.6381 20.6337C20.3581 20.9138 20.0922 21.0871 19.7187 21.2321C19.437 21.3421 19.0134 21.4721 18.2334 21.5078C17.39 21.5461 17.1367 21.5544 15.0007 21.5544C12.8645 21.5544 12.6113 21.5461 11.768 21.5078C10.988 21.4718 10.5646 21.3414 10.2824 21.2319C9.90911 21.0869 9.64244 20.9136 9.36244 20.6336C9.08243 20.3536 8.9091 20.0876 8.76376 19.7141C8.65426 19.4324 8.52376 19.0091 8.48826 18.2291C8.44993 17.3857 8.44226 17.1324 8.44226 14.996C8.44226 12.8597 8.44993 12.6077 8.48826 11.7643C8.52393 10.9843 8.65426 10.561 8.76376 10.279C8.90877 9.90564 9.08243 9.63897 9.36244 9.35896C9.64244 9.07896 9.90911 8.90562 10.2824 8.76029C10.5644 8.65029 10.988 8.52029 11.768 8.48445C12.506 8.45112 12.792 8.44112 14.283 8.43945V8.44145ZM19.2708 9.77011C18.7408 9.77011 18.3108 10.1996 18.3108 10.7298C18.3108 11.2598 18.7408 11.6898 19.2708 11.6898C19.8008 11.6898 20.2308 11.2598 20.2308 10.7298C20.2308 10.1998 19.8008 9.76978 19.2708 9.76978V9.77011ZM10.8921 15.0002C10.8921 12.7314 12.7315 10.8919 15.0003 10.8918C17.2692 10.8918 19.1082 12.7314 19.1082 15.0002C19.1082 17.2691 17.2693 19.1078 15.0005 19.1078C12.7316 19.1078 10.8921 17.2691 10.8921 15.0002Z" fill="white"/>
<path fill-rule="evenodd" clip-rule="evenodd" d="M15.0007 12.333C16.4734 12.333 17.6674 13.5269 17.6674 14.9997C17.6674 16.4724 16.4734 17.6664 15.0007 17.6664C13.5278 17.6664 12.334 16.4724 12.334 14.9997C12.334 13.5269 13.5278 12.333 15.0007 12.333V12.333Z" fill="white"/>
</svg>
