<svg width="94" height="94" viewBox="0 0 94 94" fill="none" xmlns="http://www.w3.org/2000/svg">
<path d="M16.4998 60.0734L48.9998 10.9868C53.3998 4.25875 62.7998 2.26875 69.7998 6.43827C76.8998 10.6078 78.9998 19.5154 74.5998 26.1487L42.0998 75.2353C37.6998 81.9634 28.2998 83.9534 21.2998 79.7839C14.1998 75.6144 12.0998 66.7068 16.4998 60.0734Z" fill="#61A41E"/>
<path d="M91.8 20.2H72.4V19.7C72.5 17.7 72.4 16 72 14.5C70.5 8.49995 66.1 3.69995 60.2 1.79995L59.7 1.59995C57.8 0.999951 55.9 0.699951 53.7 0.699951C47.8 0.699951 42.2 3.59995 38.9 8.49995L5.4 56.4C4.9 57 4.4 57.7 4 58.4L3.9 58.5999L3.8 58.8C1.7 62.4 0.5 66.4 0.5 70.6C0.5 83.2999 10.8 93.6 23.5 93.6H48.9C49.7 93.6 50.4 93 50.4 92.1C50.4 91.2999 49.7 90.6 48.9 90.6H47.6L48.1 89.8L52.9 82L53 81.8H56.7C57.5 81.8 58.2 81.1 58.2 80.3C58.2 79.5 57.5 78.8 56.7 78.8H54.7L55.2 78L60 70.2L60.1 70H64.5C65.3 70 66 69.4 66 68.6C66 67.7999 65.3 67.1 64.5 67.1H61.9L62.4 66.3L67.2 58.5L67.4 58.3H70.5C71.3 58.3 72 57.5999 72 56.7999C72 56 71.3 55.2999 70.5 55.2999H69L69.5 54.5L74.3 46.7L74.4 46.5H78.1C78.9 46.5 79.6 45.7999 79.6 45C79.6 44.2 78.9 43.5 78.1 43.5H76.1L76.6 42.7L81.4 34.9L81.6 34.7H84C84.8 34.7 85.5 34.1 85.5 33.2C85.5 32.5 84.9 31.9 84.2 31.7999L83.4 31.7L83.8 31L88.6 23.2L88.8 23H91.9C92.7 23 93.4 22.2999 93.4 21.5C93.3 20.9 92.7 20.2 91.8 20.2ZM14.5 48.4L41.2 10.1C44.1 5.99995 48.7 3.59995 54 3.59995C55.6 3.59995 57.3 3.89995 58.8 4.39995L59.3 4.59995C64.2 6.29995 67.9 10.2 69.2 15.3C70.2 19.2999 69.5 23.5 67.4 26.9L43.3 65.3L42.5 66.6L42.4 65.1C41.6 55.3 33.3 47.5999 23.5 47.5999C20.7 47.5999 17.8 48.1 15.2 49.2L13.7 49.7999L14.5 48.4ZM84.9 23.9L44.3 90.3L44.1 90.5H23.5C12.5 90.5 3.5 81.5 3.5 70.5C3.5 66.7 4.6 63 6.7 59.8L7.4 58.8C11.2 53.6 17.2 50.5 23.6 50.5C32.5 50.5 39.7 57.7 39.7 66.6C39.7 75.5 32.5 82.7 23.6 82.7C16.9 82.7 11.4 77.2 11.4 70.5C11.4 63.8 16.9 58.3 23.6 58.3C24.1 58.3 24.7 58.4 25.2 58.5L25.9 58.5999L25.5 59.1999L22.9 63L22.8 63.1999H22.6C19 63.6999 16.3 66.8 16.3 70.5C16.3 74.5 19.6 77.8 23.6 77.8C29.8 77.8 34.8 72.7999 34.8 66.6C34.8 60.4 29.8 55.4 23.6 55.4C15.3 55.4 8.5 62.2 8.5 70.5C8.5 78.8 15.3 85.6 23.6 85.6C30.7 85.6 37.2 81.6 40.5 75.1L40.7 74.6L40.8 74.7L69.9 28.2999C70.7 27 71.4 25.4 71.9 23.4L72 23H85.4L84.9 23.9ZM28.1 60.4L28.4 59.9L28.8 60.3C30.7 61.9 31.7 64.2 31.7 66.6C31.7 71.2 28 74.9 23.4 74.9C21 75 19 73 19 70.5C19 68 21 66.1 23.4 66.1C23.9 66.1 24.3 65.9 24.6 65.5L28.1 60.4Z" fill="#111111"/>
</svg>
