<svg width="143" height="80" viewBox="0 0 143 80" fill="none" xmlns="http://www.w3.org/2000/svg">
<path d="M42.0999 7.5H40.2999H24.9999C21.0999 7.5 17.8999 10.7 17.8999 14.6V25.2H21.7999C22.5999 25.2 23.3999 25.3 24.0999 25.6C26.6999 26.5 28.6999 29 28.8999 31.8H63.7999C67.1999 31.8 70.5999 33.1 73.0999 35.5L73.1999 35.6V14.6C73.1999 10.7 69.9999 7.5 66.0999 7.5H42.0999Z" fill="#61A41E"/>
<path d="M77.3999 14.6C77.3999 10.7 80.5999 7.5 84.4999 7.5H125.6C129.5 7.5 132.7 10.7 132.7 14.6V25.2H128.8C126 25.2 123.3 27 122.3 29.6C122 30.3 121.8 31.1 121.8 31.9H86.7999C83.2999 31.9 79.8999 33.3 77.3999 35.7V14.6Z" fill="#61A41E"/>
<path d="M112.2 48.4H113.3H121.6V36H86.7999C81.5999 36 77.3999 40.2 77.3999 45.4V48.4H112.2Z" fill="#61A41E"/>
<path d="M28.8999 36H63.7999C68.9999 36 73.1999 40.2 73.1999 45.4V48.4H28.8999V36Z" fill="#61A41E"/>
<path d="M135.5 21.9H132.2V10.8C132.2 4.8 127.3 0 121.4 0H80.3C76.8 0 73.5 1.7 71.5 4.6L71.1 5.2L70.7 4.6C68.7 1.7 65.4 0 61.9 0H36C35.1 0 34.4 0.7 34.4 1.6C34.4 2.5 35.1 3.2 36 3.2H61.8C66 3.2 69.4 6.6 69.4 10.8V32.9L68.5 32.1V32C66.1 29.8 62.9 28.5 59.6 28.5H24.2V28C24 25.4 22.3 23.1 19.8 22.2C19.1 22 18.4 21.8 17.7 21.8H13.2V10.8C13.2 6.6 16.6 3.2 20.8 3.2H27.7C28.6 3.2 29.3 2.5 29.3 1.6C29.3 0.7 28.6 0 27.7 0H20.8C14.8 0 10 4.9 10 10.8V21.9H6.6C3 21.9 0 24.9 0 28.5V50.4C0 58.3 6.4 64.7 14.3 64.7H16.1L15.8 65.4C15.8 65.4 13.5 71.5 13.5 71.6C12.9 73.3 13.1 75.2 14.2 76.7C15.3 78.2 16.9 79.1 18.7 79.1H22.1C23.8 79.1 25.5 78.3 26.5 76.9L35.5 65L35.7 64.8H106.4L106.6 65L115.6 76.9C116.6 78.3 118.3 79.1 120 79.1H123.4C125.2 79.1 126.9 78.2 127.9 76.7C128.9 75.2 129.2 73.3 128.6 71.6L126.3 65.4L126 64.7H127.8C135.7 64.7 142.1 58.3 142.1 50.4V28.5C142.1 24.8 139.2 21.9 135.5 21.9ZM72.7 10.8C72.7 6.6 76.1 3.2 80.3 3.2H121.4C125.6 3.2 129 6.6 129 10.8V21.9H124.5C121.9 21.9 119.4 23.6 118.4 25.9C118.1 26.6 117.9 27.3 117.9 28V28.5H82.5C79.2 28.5 75.9 29.8 73.5 32.1L72.7 32.9V10.8ZM24.2 31.7H59.6C65.1 31.7 69.5 36.1 69.5 41.6V45.1H24.2V31.7ZM31.1 65.4L24 74.8C23.6 75.4 22.9 75.7 22.1 75.7H18.7C17.9 75.7 17.2 75.3 16.8 74.7C16.4 74.1 16.2 73.2 16.5 72.5L19.3 64.9L19.4 64.6H31.7L31.1 65.4ZM125.3 74.8C124.8 75.4 124.1 75.8 123.4 75.8H120C119.3 75.8 118.6 75.5 118.1 74.9L111 65.5L110.4 64.7H122.7L122.8 65L125.6 72.6C125.9 73.3 125.8 74.1 125.3 74.8ZM138.9 50.4C138.9 56.5 133.9 61.5 127.8 61.5H14.3C11.3 61.5 8.6 60.3 6.5 58.2C4.4 56.1 3.2 53.3 3.2 50.4V28.5C3.2 26.6 4.7 25.1 6.6 25.1H17.6C19.5 25.1 21 26.6 21 28.5V46.7C21 47.6 21.7 48.3 22.6 48.3H99.6C100.5 48.3 101.2 47.6 101.2 46.7C101.2 45.8 100.5 45.1 99.6 45.1H72.7V41.6C72.7 36.1 77.1 31.7 82.6 31.7H118V45.1H108C107.1 45.1 106.4 45.8 106.4 46.7C106.4 47.6 107.1 48.3 108 48.3H119.5C120.4 48.3 121.1 47.6 121.1 46.7V28.5C121.1 26.6 122.6 25.1 124.5 25.1H135.5C137.4 25.1 138.9 26.6 138.9 28.5V50.4Z" fill="#111111"/>
</svg>
