<svg width="77" height="85" viewBox="0 0 77 85" fill="none" xmlns="http://www.w3.org/2000/svg">
<path d="M16.1501 17.586C16.1501 9.71026 21.8168 8.46167 25.1784 8.46167H61.0993C64.4609 8.46167 70.1275 9.61421 70.1275 17.4899V33.2413C64.9411 33.7216 60.8112 38.0436 60.8112 43.4221V45.8233H25.4665V43.4221C25.4665 38.0436 21.3366 33.7216 16.1501 33.2413V17.586ZM60.7151 49.2809V61.1905H25.4665V49.2809H60.7151Z" fill="#61A41E"/>
<path d="M16.1501 17.586C16.1501 9.71026 21.8168 8.46167 25.1784 8.46167H61.0993C64.4609 8.46167 70.1275 9.61421 70.1275 17.4899V33.2413C64.9411 33.7216 60.8112 38.0436 60.8112 43.4221V45.8233H25.4665V43.4221C25.4665 38.0436 21.3366 33.7216 16.1501 33.2413V17.586Z" fill="#61A41E"/>
<path d="M60.7151 49.2809V61.1905H25.4665V49.2809H60.7151Z" fill="#61A41E"/>
<path d="M68.5763 28.5254V12.4859C68.5763 3.26554 62.1412 0 56.0904 0H20.1695C14.1186 0 7.68362 3.26554 7.68362 12.4859V28.5254C3.26554 29.678 0 33.6158 0 38.4181V64.1582C0 71.7458 5.0904 74.7232 10.0847 75.0113V81.5424C10.0847 83.4633 11.6215 85 13.5424 85H17.096C19.0169 85 20.5537 83.4633 20.5537 81.5424V75.0113H55.8023V81.5424C55.8023 83.4633 57.339 85 59.2599 85H62.8136C64.7345 85 66.2712 83.4633 66.2712 81.5424V75.0113C73.6667 74.6271 76.3559 69.2486 76.3559 64.1582V38.322C76.1638 33.6158 72.8983 29.5819 68.5763 28.5254ZM11.1412 12.4859C11.1412 4.61017 16.8079 3.36158 20.1695 3.36158H56.0904C59.452 3.36158 65.1187 4.51412 65.1187 12.3898V28.1412C59.9322 28.6215 55.8023 32.9435 55.8023 38.322V40.7232H20.4576V38.322C20.4576 32.9435 16.3277 28.6215 11.1412 28.1412V12.4859ZM55.7062 44.1808V56.0904H20.4576V44.1808H55.7062ZM17.096 81.5424H13.5424V75.0113H17.096V81.5424ZM62.7175 81.5424H59.1638V75.0113H62.7175V81.5424ZM72.8983 64.1582H72.8023C72.8023 67.5198 71.5537 71.6497 65.3107 71.6497H62.7175H59.1638H17.096H13.5424H10.9492C7.58757 71.6497 3.45763 70.4011 3.45763 64.1582V38.322C3.45763 34.5763 6.53107 31.5028 10.2768 31.5028C14.0226 31.5028 17.096 34.5763 17.096 38.322V57.8192C17.096 58.7797 17.8644 59.548 18.8249 59.548H57.5311C58.4915 59.548 59.2599 58.7797 59.2599 57.8192V38.322C59.2599 34.5763 62.3333 31.5028 66.0791 31.5028C69.8249 31.5028 72.8983 34.5763 72.8983 38.322V64.1582Z" fill="#111111"/>
</svg>
