<svg width="94" height="98" viewBox="0 0 94 98" fill="none" xmlns="http://www.w3.org/2000/svg">
<path d="M26.5017 68.4296C26.6885 68.1605 26.9954 68 27.3231 68H76.6769C77.0046 68 77.3115 68.1605 77.4983 68.4296L92.9095 90.6232C93.37 91.2863 92.8954 92.1936 92.0881 92.1936H11.9118C11.1045 92.1936 10.63 91.2863 11.0905 90.6232L26.5017 68.4296Z" fill="#61A41E"/>
<path d="M19.0458 72.6223C19.1388 72.4853 19.2938 72.4032 19.4594 72.4032H72.5406C72.7062 72.4032 72.8612 72.4853 72.9542 72.6223L88.638 95.7191C88.8635 96.0511 88.6257 96.5 88.2244 96.5H3.77562C3.37434 96.5 3.13655 96.0511 3.36197 95.7191L19.0458 72.6223L17.8081 71.7819L19.0458 72.6223Z" stroke="#111111" stroke-width="3"/>
<path d="M87.6923 49.2308H81.5385V41.5385C81.5385 38.9897 79.4719 36.9231 76.9231 36.9231H15.3846C12.8358 36.9231 10.7692 38.9897 10.7692 41.5385V49.2308H4.61538C2.06656 49.2308 0 51.2973 0 53.8462V72.3077C0 73.1573 0.688852 73.8462 1.53846 73.8462H10.3388L9.27659 78.089C9.16241 78.5487 9.26532 79.0355 9.55679 79.4088C9.84826 79.7814 10.296 80 10.7692 80H15.3846C15.8691 80 16.3251 79.7717 16.6151 79.3848L20.7692 73.8462H71.5385L75.6926 79.3848C75.9826 79.7717 76.4386 80 76.9231 80H81.5385C82.0117 80 82.4594 79.7814 82.7509 79.4088C83.0424 79.0355 83.1453 78.5487 83.0311 78.089L81.9689 73.8462H90.7692C91.6188 73.8462 92.3077 73.1573 92.3077 72.3077V53.8462C92.3077 51.2973 90.2411 49.2308 87.6923 49.2308ZM78.4615 41.5385V58.7448C77.9688 58.5622 77.4482 58.4668 76.9231 58.4616H47.6923V40H76.9231C77.7727 40 78.4615 40.6889 78.4615 41.5385ZM20 70.7692H13.8462V63.0769C13.8462 62.2273 14.535 61.5385 15.3846 61.5385H44.6154V70.7692H20ZM13.8462 41.5385C13.8462 40.6889 14.535 40 15.3846 40H44.6154V58.4616H15.3846C14.8595 58.4668 14.3389 58.5622 13.8462 58.7448V41.5385ZM3.07692 53.8462C3.07692 52.9966 3.76578 52.3077 4.61538 52.3077H10.7692V70.7692H3.07692V53.8462ZM14.6154 76.9231H12.7396L13.5089 73.8462H16.9231L14.6154 76.9231ZM47.6923 61.5385H76.9231C77.7727 61.5385 78.4615 62.2273 78.4615 63.0769V70.7692H47.6923V61.5385ZM77.6923 76.9231L75.3846 73.8462H78.7988L79.5681 76.9231H77.6923ZM89.2308 70.7692H81.5385V52.3077H87.6923C88.5419 52.3077 89.2308 52.9966 89.2308 53.8462V70.7692Z" fill="#111111"/>
<path d="M21.5385 47.6923H24.6154V50.7692H21.5385V47.6923Z" fill="#111111"/>
<path d="M33.8447 47.6923H36.9216V50.7692H33.8447V47.6923Z" fill="#111111"/>
<path d="M55.3846 47.6923H58.4616V50.7692H55.3846V47.6923Z" fill="#111111"/>
<path d="M67.6923 47.6923H70.7692V50.7692H67.6923V47.6923Z" fill="#111111"/>
<path d="M15.3846 1.53846V13.8462H10.7692C9.91963 13.8462 9.23077 14.535 9.23077 15.3846V21.5385C9.23077 22.3881 9.91963 23.0769 10.7692 23.0769H15.3846V29.2308C15.3846 30.0804 16.0735 30.7692 16.9231 30.7692H23.0769C23.9265 30.7692 24.6154 30.0804 24.6154 29.2308V23.0769H67.6923V29.2308C67.6923 30.0804 68.3812 30.7692 69.2308 30.7692H75.3846C76.2342 30.7692 76.9231 30.0804 76.9231 29.2308V23.0769H81.5385C82.3881 23.0769 83.0769 22.3881 83.0769 21.5385V15.3846C83.0777 14.9715 82.9109 14.5763 82.6157 14.2879C83.4383 12.6112 83.1453 10.6017 81.8773 9.23077C83.1062 7.88311 83.4217 5.936 82.6818 4.26908C81.9419 2.60216 80.2855 1.5302 78.4615 1.53846H67.6923C67.1575 1.53546 66.6602 1.8104 66.3777 2.26412C66.0953 2.7186 66.069 3.28651 66.3078 3.76427C67.0568 5.26968 67.0568 7.03801 66.3078 8.54342C66.2876 8.58323 66.2816 8.62605 66.2643 8.66737C66.2477 8.70943 66.2185 8.78606 66.2012 8.84766C66.1861 8.91076 66.1749 8.97536 66.1674 9.03996C66.1471 9.16617 66.1471 9.29537 66.1674 9.42157C66.1749 9.48618 66.1861 9.55078 66.2012 9.61388C66.2185 9.67548 66.2417 9.73407 66.2643 9.79417C66.2876 9.85351 66.2876 9.8783 66.3078 9.91812C66.9073 11.1403 67.017 12.5458 66.6151 13.8462H52.1184C52.3265 13.4593 52.3565 13.0018 52.2018 12.5909L47.6495 0.976562C47.4925 0.579928 47.1777 0.265925 46.7803 0.109675C46.383 -0.0465746 45.939 -0.0307992 45.5536 0.153996L43.0386 1.35367C42.9545 0.58744 42.3092 0.00525846 41.5385 0H29.2308C28.3812 0 27.6923 0.688852 27.6923 1.53846V3.07692H24.6154V1.53846C24.6154 0.688852 23.9265 0 23.0769 0H16.9231C16.0735 0 15.3846 0.688852 15.3846 1.53846ZM21.5385 27.6923H18.4615V23.0769H21.5385V27.6923ZM73.8462 27.6923H70.7692V23.0769H73.8462V27.6923ZM80 20H12.3077V16.9231H80V20ZM69.8122 4.61538H78.4615C79.3111 4.61538 80 5.30424 80 6.15385C80 7.00346 79.3111 7.69231 78.4615 7.69231H69.8122C70 6.67518 70 5.63251 69.8122 4.61538ZM69.8122 10.7692H78.4615C79.3111 10.7692 80 11.4581 80 12.3077C80 13.1573 79.3111 13.8462 78.4615 13.8462H69.8122C70 12.829 70 11.7864 69.8122 10.7692ZM43.0769 13.8462V11.9111L43.8356 13.8462H43.0769ZM45.3846 3.63882L48.8108 12.3798L46.9171 13.2843L43.4938 4.54327L45.3846 3.63882ZM40 13.8462H36.9231V3.07692H40V13.8462ZM30.7692 3.07692H33.8462V13.8462H30.7692V3.07692ZM27.6923 6.15385V13.8462H24.6154V6.15385H27.6923ZM18.4615 3.07692H21.5385V13.8462H18.4615V3.07692Z" fill="#111111"/>
</svg>
