<?xml version="1.0" encoding="UTF-8"?><!DOCTYPE svg PUBLIC "-//W3C//DTD SVG 1.1//EN" "http://www.w3.org/Graphics/SVG/1.1/DTD/svg11.dtd"><svg xmlns="http://www.w3.org/2000/svg" xmlns:xlink="http://www.w3.org/1999/xlink"><symbol id="icon-arrow" viewBox="0 0 36 36">
    <path class="st0" d="M18 3.3C9.9 3.3 3.3 9.9 3.3 18S9.9 32.7 18 32.7 32.7 26.1 32.7 18 26.1 3.3 18 3.3zM0 18C0 8.1 8.1 0 18 0s18 8.1 18 18-8.1 18-18 18S0 27.9 0 18z"/>
    <path class="st1" d="M19.2 10.3c-.6-.6-1.7-.6-2.3 0-.6.6-.6 1.7 0 2.3l3.8 3.8h-9.1c-.9 0-1.6.7-1.6 1.6s.7 1.6 1.6 1.6h9.1l-3.8 3.8c-.6.6-.6 1.7 0 2.3.6.6 1.7.6 2.3 0l6.5-6.5c.6-.6.6-1.7 0-2.3l-6.5-6.6z"/>
</symbol></svg>