<svg width="30" height="30" viewBox="0 0 30 30" fill="none" xmlns="http://www.w3.org/2000/svg">
<path fill-rule="evenodd" clip-rule="evenodd" d="M15 0C6.71573 0 0 6.71573 0 15C0 23.2843 6.71573 30 15 30C23.2843 30 30 23.2843 30 15C30 6.71573 23.2843 0 15 0ZM16.2215 19.7354C16.0736 19.8913 15.7848 19.9228 15.7848 19.9228H14.8285C14.8285 19.9228 12.7187 20.0472 10.8601 18.1483C8.8333 16.0766 7.04358 11.9662 7.04358 11.9662C7.04358 11.9662 6.94029 11.6966 7.05219 11.5668C7.17818 11.42 7.52173 11.4108 7.52173 11.4108L9.80759 11.3962C9.80759 11.3962 10.0228 11.4308 10.177 11.5422C10.3045 11.6344 10.3757 11.8057 10.3757 11.8057C10.3757 11.8057 10.7451 12.7228 11.2342 13.5525C12.1897 15.1725 12.6342 15.5266 12.9582 15.353C13.4308 15.1003 13.2892 13.0631 13.2892 13.0631C13.2892 13.0631 13.2978 12.3242 13.0513 11.9946C12.8604 11.7396 12.5004 11.6651 12.3415 11.6443C12.2124 11.6274 12.4237 11.334 12.6976 11.2027C13.1092 11.0052 13.8354 10.9937 14.6939 11.0022C15.363 11.0091 15.5555 11.0498 15.8169 11.112C16.4235 11.2557 16.4046 11.7162 16.3637 12.71C16.3515 13.0073 16.3373 13.3522 16.3373 13.7506C16.3373 13.8402 16.3346 13.9356 16.3319 14.0338C16.3177 14.543 16.3015 15.126 16.6433 15.343C16.8186 15.4536 17.2466 15.3592 18.3179 13.574C18.8258 12.7275 19.2061 11.7327 19.2061 11.7327C19.2061 11.7327 19.2899 11.5552 19.419 11.4792C19.5513 11.4016 19.7297 11.4254 19.7297 11.4254L22.1353 11.4108C22.1353 11.4108 22.8584 11.3256 22.975 11.6467C23.0978 11.9823 22.705 12.7674 21.7221 14.0533C20.7897 15.2734 20.336 15.7226 20.3776 16.1199C20.4081 16.4102 20.703 16.6728 21.269 17.1881C22.4505 18.2649 22.7672 18.8314 22.8432 18.9675C22.8496 18.9788 22.8542 18.9871 22.8576 18.9926C23.3874 19.8552 22.2699 19.9228 22.2699 19.9228L20.1327 19.952C20.1327 19.952 19.6741 20.0411 19.07 19.634C18.7535 19.4209 18.4443 19.0729 18.1497 18.7414C17.6999 18.2351 17.2843 17.7675 16.9297 17.878C16.3341 18.0639 16.3521 19.3229 16.3521 19.3229C16.3521 19.3229 16.3568 19.5925 16.2215 19.7354Z" fill="white"/>
</svg>
