<svg width="30" height="30" viewBox="0 0 30 30" fill="none" xmlns="http://www.w3.org/2000/svg">
<path fill-rule="evenodd" clip-rule="evenodd" d="M15 3.75C8.7868 3.75 3.75 8.7868 3.75 15C3.75 21.2132 8.7868 26.25 15 26.25C21.2132 26.25 26.25 21.2132 26.25 15C26.25 8.7868 21.2132 3.75 15 3.75ZM1.25 15C1.25 7.40608 7.40608 1.25 15 1.25C22.5939 1.25 28.75 7.40608 28.75 15C28.75 22.5939 22.5939 28.75 15 28.75C7.40608 28.75 1.25 22.5939 1.25 15Z" fill="#61A41E"/>
<path fill-rule="evenodd" clip-rule="evenodd" d="M15 13.75C15.6904 13.75 16.25 14.3096 16.25 15V20C16.25 20.6904 15.6904 21.25 15 21.25C14.3096 21.25 13.75 20.6904 13.75 20V15C13.75 14.3096 14.3096 13.75 15 13.75Z" fill="#61A41E"/>
<path d="M16.25 10C16.25 10.6904 15.6904 11.25 15 11.25C14.3096 11.25 13.75 10.6904 13.75 10C13.75 9.30964 14.3096 8.75 15 8.75C15.6904 8.75 16.25 9.30964 16.25 10Z" fill="#61A41E"/>
</svg>
