<svg width="30" height="30" viewBox="0 0 30 30" fill="none" xmlns="http://www.w3.org/2000/svg">
<path fill-rule="evenodd" clip-rule="evenodd" d="M30 15C30 23.2843 23.2843 30 15 30C6.71573 30 0 23.2843 0 15C0 6.71573 6.71573 0 15 0C23.2843 0 30 6.71573 30 15ZM15.4906 23.3451H15.4943C20.4121 23.3431 24.4117 19.3424 24.4137 14.4257C24.4147 12.0425 23.4877 9.80152 21.8038 8.11564C20.1198 6.42967 17.8803 5.50079 15.4942 5.49976C10.5779 5.49976 6.57662 9.50081 6.57466 14.4187C6.57399 15.9907 6.98471 17.5251 7.76526 18.8778L6.49988 23.4998L11.2282 22.2594C12.531 22.97 13.9978 23.3446 15.4906 23.3451Z" fill="white"/>
<path fill-rule="evenodd" clip-rule="evenodd" d="M11.7182 20.8049L11.4475 20.6443L8.64163 21.3803L9.39055 18.6446L9.21429 18.3641C8.47218 17.1838 8.08024 15.8196 8.08081 14.4188C8.08243 10.3313 11.4082 7.00586 15.4974 7.00586C17.4776 7.00655 19.3389 7.77864 20.7386 9.17995C22.1383 10.5813 22.9087 12.4438 22.9079 14.4248C22.9063 18.5125 19.5806 21.8383 15.4945 21.8383H15.4915C14.1612 21.8378 12.8564 21.4804 11.7182 20.8049ZM19.6825 16.3458C19.8379 16.4209 19.9429 16.4716 19.9877 16.5464C20.0434 16.6393 20.0434 17.0856 19.8578 17.6063C19.672 18.1268 18.7816 18.602 18.3534 18.6659C17.9695 18.7233 17.4836 18.7473 16.9497 18.5776C16.626 18.4749 16.2109 18.3378 15.6792 18.1081C13.5898 17.206 12.1779 15.181 11.911 14.7982C11.8923 14.7714 11.8792 14.7527 11.8719 14.7429L11.8701 14.7405C11.7522 14.5832 10.9619 13.5287 10.9619 12.4375C10.9619 11.4109 11.4662 10.8728 11.6983 10.6251C11.7142 10.6081 11.7288 10.5925 11.7419 10.5782C11.9462 10.3551 12.1877 10.2993 12.3362 10.2993C12.4848 10.2993 12.6335 10.3007 12.7634 10.3072C12.7794 10.308 12.7961 10.3079 12.8133 10.3078C12.9432 10.3071 13.1051 10.3061 13.2648 10.6898C13.3263 10.8374 13.4162 11.0564 13.511 11.2872C13.7028 11.7541 13.9147 12.27 13.952 12.3446C14.0077 12.4562 14.0448 12.5863 13.9705 12.7351C13.9594 12.7574 13.9491 12.7784 13.9392 12.7986C13.8834 12.9125 13.8424 12.9963 13.7477 13.1068C13.7105 13.1503 13.672 13.1972 13.6335 13.244C13.5568 13.3374 13.4801 13.4308 13.4134 13.4973C13.3018 13.6084 13.1857 13.729 13.3157 13.9521C13.4457 14.1753 13.893 14.905 14.5555 15.496C15.2677 16.1313 15.8867 16.3998 16.2005 16.5359C16.2617 16.5624 16.3114 16.584 16.3478 16.6022C16.5705 16.7138 16.7006 16.6951 16.8306 16.5464C16.9606 16.3977 17.3877 15.8956 17.5362 15.6726C17.6848 15.4495 17.8334 15.4867 18.0377 15.561C18.242 15.6355 19.3377 16.1745 19.5606 16.2861C19.6041 16.3079 19.6448 16.3275 19.6825 16.3458Z" fill="white"/>
</svg>
