<svg width="60" height="80" viewBox="0 0 60 80" fill="none" xmlns="http://www.w3.org/2000/svg">
<path fill-rule="evenodd" clip-rule="evenodd" d="M53.125 30.7825V23.4375C53.125 10.5139 42.6111 0 29.6875 0C16.7639 0 6.25 10.5139 6.25 23.4375V30.7825C2.68799 31.5082 0 34.6649 0 38.4375V47.3077C0 48.1708 0.699463 48.8702 1.5625 48.8702C2.42554 48.8702 3.125 48.1708 3.125 47.3077V38.4375C3.125 35.8527 5.22766 33.75 7.8125 33.75H51.5625C54.1473 33.75 56.25 35.8527 56.25 38.4375V72.1875C56.25 74.2242 54.9438 75.9613 53.125 76.6064C53.1039 76.696 52.4493 76.875 50 76.875H7.8125C5.22766 76.875 3.125 74.7723 3.125 72.1875V59.8437C3.125 58.9807 2.42554 58.2812 1.5625 58.2812C0.699463 58.2812 0 58.9807 0 59.8437V72.1875C0 76.4954 3.50464 80 7.8125 80H51.5625C55.8704 80 59.375 76.4954 59.375 72.1875V38.4375C59.375 34.6649 56.687 31.5082 53.125 30.7825ZM17.8125 23.4375V30.625H41.5625V23.4375C41.5625 16.8896 36.2354 11.5625 29.6875 11.5625C23.1397 11.5625 17.8125 16.8896 17.8125 23.4375ZM44.6875 23.4375V30.625H50V23.4375C50 12.2369 40.8881 3.125 29.6875 3.125C18.4869 3.125 9.375 12.2369 9.375 23.4375V30.625H14.6875V23.4375C14.6875 15.1666 21.4166 8.4375 29.6875 8.4375C37.9584 8.4375 44.6875 15.1666 44.6875 23.4375Z" fill="#61A41E"/>
<path d="M1.5625 55.0767C1.97327 55.0767 2.37671 54.91 2.66724 54.6189C2.95776 54.3284 3.125 53.9255 3.125 53.5142C3.125 53.1034 2.95776 52.7 2.66724 52.41C2.37671 52.1189 1.97327 51.9517 1.5625 51.9517C1.15173 51.9517 0.748291 52.1189 0.457764 52.41C0.167236 52.7 0 53.1034 0 53.5142C0 53.9255 0.167236 54.3284 0.457764 54.6189C0.748291 54.91 1.15173 55.0767 1.5625 55.0767Z" fill="#61A41E"/>
<path d="M33.6995 42.6772C31.0818 42.6772 25.0599 42.6772 24.0712 42.6772V52.3056H20.8617V55.5151H24.0712V58.7245H20.8617V61.934H24.0712V68.3529H27.2806V61.934H35.3043V58.7245H27.2806V55.5151H33.6995C37.2391 55.5151 40.1185 52.6358 40.1185 49.0962C40.1185 45.5566 37.2391 42.6772 33.6995 42.6772ZM33.6995 52.3056H27.2806V45.8867H33.6995C35.4693 45.8867 36.909 47.3264 36.909 49.0962C36.909 50.866 35.4693 52.3056 33.6995 52.3056Z" fill="#111111"/>
</svg>
