<svg width="30" height="30" viewBox="0 0 30 30" fill="none" xmlns="http://www.w3.org/2000/svg">
<path fill-rule="evenodd" clip-rule="evenodd" d="M15 0C6.7281 0 0 6.72812 0 15.0009C0 23.2719 6.7281 30 15 30C15.5115 30 15.9248 29.5867 15.9248 29.0761C15.9248 28.5627 15.5115 28.1485 15 28.1485C7.74842 28.1485 1.85055 22.2488 1.85055 15.0009C1.85055 7.74936 7.74842 1.85055 15 1.85055C22.2516 1.85055 28.1485 7.75028 28.1485 15.0009C28.1485 18.0307 26.5358 21.0329 24.2279 22.3058C23.3895 22.7668 22.4803 22.9955 21.5104 23.0047C22.0927 22.6584 22.5969 22.1901 22.9716 21.6005C22.9963 21.5631 23.0237 21.5271 23.0511 21.4913C23.105 21.4207 23.1585 21.3506 23.1902 21.2708C23.3826 20.808 23.4629 20.3055 23.5433 19.8033C23.5887 19.5191 23.6342 19.235 23.6999 18.9583C23.923 17.9811 19.422 16.0718 19.0308 17.2923C18.986 17.4353 18.9337 17.6762 18.8741 17.9507C18.7454 18.5433 18.5828 19.2924 18.3888 19.5497C18.1363 19.8858 17.5136 19.726 17.1242 19.3954C16.4054 18.7828 15.6279 17.9686 14.8813 17.1866C14.5624 16.8526 14.2491 16.5245 13.9484 16.2206L13.9503 16.2196C13.9455 16.2147 13.9405 16.2096 13.9353 16.2044C13.9268 16.1959 13.9179 16.1871 13.909 16.1783C13.8944 16.164 13.8796 16.1495 13.8658 16.1352C13.8495 16.1199 13.8333 16.1035 13.817 16.0871C13.8048 16.0748 13.7926 16.0625 13.7804 16.0507V16.0525C13.4716 15.7465 13.1378 15.4279 12.7982 15.1037C12.0209 14.3618 11.2134 13.591 10.6055 12.8758C10.2749 12.4864 10.1151 11.8637 10.4512 11.6112C10.7071 11.4171 11.4487 11.2566 12.0396 11.1286C12.3185 11.0683 12.5638 11.0152 12.7086 10.9692C13.9264 10.5798 12.0198 6.07605 11.0408 6.30013C10.7676 6.36417 10.487 6.40907 10.2061 6.45401C9.70138 6.53476 9.19569 6.61567 8.73018 6.80801C8.64933 6.8424 8.58037 6.89502 8.51107 6.94791C8.47488 6.97553 8.4386 7.00322 8.40048 7.02842C5.82992 8.65764 5.49838 12.6141 8.00741 15.5621C8.96345 16.6899 9.96082 17.7809 10.9876 18.8462L10.9821 18.8499C11.0033 18.8711 11.025 18.8913 11.0469 18.9117L11.0693 18.9326C11.0969 18.961 11.1235 18.9895 11.1501 19.0198L11.1556 19.0143C11.3999 19.2497 11.6546 19.5107 11.9268 19.7897C12.8416 20.7272 13.9542 21.8674 15.5354 22.922C19.8546 25.8067 23.169 25.0012 25.1215 23.9304C28.492 22.0743 30 18.1097 30 15.0046C30 6.72812 23.271 0 15 0Z" fill="#111111"/>
<path d="M24.0535 14.5815H25.5835C25.5835 8.74526 20.8373 3.99725 15.0009 4L15.0018 5.52818C19.9924 5.52818 24.0535 9.58833 24.0535 14.5815Z" fill="#61A41E"/>
<path d="M15 8.1676L15.0009 6.63942C19.3816 6.63942 22.9413 10.2018 22.9413 14.5797L21.4113 14.5806C21.4131 11.0449 18.5385 8.1676 15 8.1676Z" fill="#61A41E"/>
</svg>
