<svg width="256" height="30" viewBox="0 0 256 30" fill="none" xmlns="http://www.w3.org/2000/svg">
<path d="M43.2698 9.84248H42.3758V6.5403C42.3758 4.58816 40.7777 3 38.8135 3H25.9031C24.7063 3 23.6463 3.59021 23 4.49243C22.3537 3.59012 21.2937 3 20.0969 3H11.9862C11.6221 3 11.327 3.29331 11.327 3.65511C11.327 4.0169 11.6221 4.31022 11.9862 4.31022H20.0969C21.3342 4.31022 22.3408 5.31061 22.3408 6.5403V13.0923C22.327 13.0791 22.3124 13.0668 22.2985 13.0537C21.5171 12.3297 20.4581 11.9124 19.3892 11.9124H8.40919C8.35109 11.0328 7.74772 10.2591 6.91514 9.96582C6.68056 9.88319 6.43253 9.84248 6.18371 9.84248H4.94261V6.5403C4.94261 5.31061 5.94922 4.31022 7.18654 4.31022H9.34944C9.71349 4.31022 10.0086 4.0169 10.0086 3.65511C10.0086 3.29331 9.71349 3 9.34944 3H7.18654C5.22228 3 3.62425 4.58816 3.62425 6.5403V9.84248H2.73022C1.50046 9.84248 0.5 10.8369 0.5 12.0589V18.8992C0.5 21.4444 2.58354 23.515 5.14449 23.515H5.47575C5.47575 23.515 4.75399 25.4444 4.75347 25.4459C4.29811 26.663 5.23537 28 6.53984 28H7.60033C8.19395 28 8.76216 27.7191 9.12031 27.2486L11.9619 23.515H34.0383L36.8799 27.2486C37.238 27.7191 37.8062 28 38.3998 28C38.3998 28 39.4595 28 39.4602 28C40.7662 28 41.7018 26.6627 41.2465 25.4459L40.5242 23.515H40.8555C43.4165 23.515 45.5 21.4444 45.5 18.8992V12.0589C45.5 10.8369 44.4995 9.84248 43.2698 9.84248ZM23.6592 6.54047C23.6592 5.3107 24.6658 4.3103 25.9031 4.3103H38.8135C40.0508 4.3103 41.0574 5.3107 41.0574 6.54038V9.84257C41.0574 9.84257 39.8166 9.84257 39.8162 9.84257C38.9398 9.84257 38.099 10.4016 37.759 11.2036C37.6638 11.4282 37.6068 11.6694 37.5908 11.9125C37.5908 11.9125 26.6112 11.9125 26.6108 11.9125C25.5254 11.9125 24.4435 12.3466 23.6592 13.0924V6.54047ZM8.41402 13.2227H19.3892C21.0167 13.2228 22.3408 14.5387 22.3408 16.1562V17.0877H8.41402V13.2227ZM8.06888 26.4581C7.95849 26.6032 7.78323 26.6898 7.60024 26.6898C7.60024 26.6898 6.54345 26.6898 6.53976 26.6898C6.13616 26.6898 5.8485 26.2783 5.98912 25.9025L6.88227 23.515H10.3088L8.06888 26.4581ZM39.4602 26.6897H38.3998C38.2168 26.6897 38.0416 26.6031 37.9312 26.4581L35.6912 23.515H39.1177C39.1177 23.515 40.0078 25.8941 40.0109 25.9024C40.1518 26.2791 39.8621 26.6897 39.4602 26.6897ZM40.8555 22.2048H5.14449C3.31048 22.2049 1.81836 20.7219 1.81836 18.8992V12.0589C1.81836 11.5592 2.2274 11.1527 2.73022 11.1527H6.18371C6.68653 11.1527 7.09558 11.5592 7.09558 12.0589V17.7427C7.09558 18.1045 7.39071 18.3979 7.75476 18.3979H31.9666C32.3306 18.3979 32.6258 18.1045 32.6258 17.7427C32.6258 17.3809 32.3306 17.0876 31.9666 17.0876H23.6592V16.1561C23.6592 14.5386 24.9833 13.2227 26.6108 13.2227H37.586V17.0877H34.6033C34.2393 17.0877 33.9441 17.381 33.9441 17.7428C33.9441 18.1046 34.2393 18.3979 34.6033 18.3979H38.2452C38.6092 18.3979 38.9043 18.1046 38.9043 17.7428V12.059C38.9043 11.5593 39.3134 11.1528 39.8162 11.1528H43.2697C43.7725 11.1528 44.1816 11.5593 44.1816 12.059V18.8992H44.1816C44.1816 20.7219 42.6895 22.2048 40.8555 22.2048Z" fill="#61A41E"/>
<path d="M60.396 12.144H58.704L56.724 15.438L58.704 18.714H60.396L58.416 15.438L60.396 12.144ZM63.456 12.144H61.764L59.784 15.438L61.764 18.714H63.456L61.476 15.438L63.456 12.144ZM74.8098 8.4H65.6658V21H67.3398V9.984H73.1358V21H74.8098V8.4ZM81.2214 21.234C83.8494 21.234 85.9734 19.164 85.9734 16.5C85.9734 13.836 83.8494 11.766 81.2214 11.766C78.5934 11.766 76.4874 13.836 76.4874 16.5C76.4874 19.164 78.5934 21.234 81.2214 21.234ZM81.2214 19.704C79.4394 19.704 78.0534 18.318 78.0534 16.5C78.0534 14.682 79.4394 13.296 81.2214 13.296C83.0214 13.296 84.4074 14.682 84.4074 16.5C84.4074 18.318 83.0214 19.704 81.2214 19.704ZM92.4276 11.766C90.8976 11.766 89.7456 12.45 89.0256 13.548V12H87.4596V24.6H89.0256V19.452C89.7456 20.55 90.8976 21.234 92.4276 21.234C94.9296 21.234 96.9816 19.164 96.9816 16.5C96.9816 13.836 94.9296 11.766 92.4276 11.766ZM92.2296 19.722C90.4116 19.722 89.0256 18.336 89.0256 16.5C89.0256 14.664 90.4116 13.278 92.2296 13.278C94.0296 13.278 95.4156 14.664 95.4156 16.5C95.4156 18.336 94.0296 19.722 92.2296 19.722ZM105.942 12V13.548C105.222 12.45 104.07 11.766 102.54 11.766C100.038 11.766 97.9862 13.836 97.9862 16.5C97.9862 19.164 100.038 21.234 102.54 21.234C104.07 21.234 105.222 20.55 105.942 19.452V21H107.508V12H105.942ZM102.738 19.722C100.938 19.722 99.5522 18.336 99.5522 16.5C99.5522 14.664 100.938 13.278 102.738 13.278C104.556 13.278 105.942 14.664 105.942 16.5C105.942 18.336 104.556 19.722 102.738 19.722ZM118.521 16.392C119.241 15.96 119.601 15.24 119.601 14.376C119.601 12.99 118.449 11.766 116.415 11.766C114.777 11.766 113.661 12.54 113.085 13.746L114.363 14.484C114.723 13.62 115.461 13.206 116.415 13.206C117.459 13.206 118.071 13.764 118.071 14.502C118.071 15.276 117.549 15.744 116.631 15.744H115.659V17.166H116.973C117.909 17.166 118.467 17.67 118.467 18.39C118.467 19.182 117.819 19.776 116.577 19.776C115.263 19.776 114.561 19.164 114.255 18.3L112.941 19.074C113.463 20.298 114.561 21.234 116.559 21.234C118.881 21.234 120.015 19.956 120.015 18.534C120.015 17.562 119.475 16.788 118.521 16.392ZM127.346 16.374C127.994 15.96 128.318 15.294 128.318 14.448C128.318 13.044 127.346 12 125.492 12H121.352V21H125.852C127.778 21 128.732 19.884 128.732 18.462C128.732 17.49 128.246 16.752 127.346 16.374ZM125.42 13.404C126.32 13.404 126.788 13.836 126.788 14.556C126.788 15.348 126.32 15.762 125.42 15.762H122.882V13.404H125.42ZM125.762 19.578H122.882V17.148H125.762C126.68 17.148 127.184 17.598 127.184 18.336C127.184 19.11 126.698 19.578 125.762 19.578ZM134.292 21.234C136.92 21.234 139.044 19.164 139.044 16.5C139.044 13.836 136.92 11.766 134.292 11.766C131.664 11.766 129.558 13.836 129.558 16.5C129.558 19.164 131.664 21.234 134.292 21.234ZM134.292 19.704C132.51 19.704 131.124 18.318 131.124 16.5C131.124 14.682 132.51 13.296 134.292 13.296C136.092 13.296 137.478 14.682 137.478 16.5C137.478 18.318 136.092 19.704 134.292 19.704ZM146.758 12V15.744H142.096V12H140.53V21H142.096V17.238H146.758V21H148.324V12H146.758ZM156.882 12L151.896 18.318V12H150.348V21H151.608L156.594 14.682V21H158.142V12H156.882ZM166.862 12H159.158V13.512H162.236V21H163.802V13.512H166.862V12ZM171.672 15.24H169.44V12H167.874V21H171.672C173.454 21 174.804 19.83 174.804 18.12C174.804 16.41 173.454 15.24 171.672 15.24ZM171.672 19.542H169.44V16.68H171.672C172.536 16.68 173.256 17.238 173.256 18.12C173.256 19.002 172.536 19.542 171.672 19.542ZM179.331 21C181.671 21.216 183.489 20.19 183.489 15.546V9.984H188.457V21H190.131V8.4H181.815V15.546C181.815 18.876 180.897 19.704 179.331 19.488V21ZM194.711 10.794C195.233 10.794 195.647 10.362 195.647 9.84C195.647 9.318 195.233 8.904 194.711 8.904C194.189 8.904 193.757 9.318 193.757 9.84C193.757 10.362 194.189 10.794 194.711 10.794ZM198.131 10.794C198.653 10.794 199.067 10.362 199.067 9.84C199.067 9.318 198.653 8.904 198.131 8.904C197.609 8.904 197.177 9.318 197.177 9.84C197.177 10.362 197.609 10.794 198.131 10.794ZM193.415 17.22H200.957C200.993 16.986 201.011 16.752 201.011 16.518C201.011 13.998 199.247 11.766 196.529 11.766C193.721 11.766 191.813 13.836 191.813 16.5C191.813 19.2 193.739 21.234 196.637 21.234C198.437 21.234 199.805 20.424 200.597 19.2L199.265 18.444C198.815 19.182 197.915 19.758 196.673 19.758C194.999 19.758 193.721 18.84 193.415 17.22ZM196.529 13.242C197.879 13.242 199.157 14.07 199.427 15.852H193.415C193.667 14.286 194.837 13.242 196.529 13.242ZM213.215 12V19.506H209.399V12H207.833V19.506H204.017V12H202.451V21H214.781V12H213.215ZM217.92 17.22H225.462C225.498 16.986 225.516 16.752 225.516 16.518C225.516 13.998 223.752 11.766 221.034 11.766C218.226 11.766 216.318 13.836 216.318 16.5C216.318 19.2 218.244 21.234 221.142 21.234C222.942 21.234 224.31 20.424 225.102 19.2L223.77 18.444C223.32 19.182 222.42 19.758 221.178 19.758C219.504 19.758 218.226 18.84 217.92 17.22ZM221.034 13.242C222.384 13.242 223.662 14.07 223.932 15.852H217.92C218.172 14.286 219.342 13.242 221.034 13.242ZM227.352 17.31H228.558L228.9 12V8.4H227.01V12L227.352 17.31ZM227.946 21.198C228.612 21.198 229.116 20.676 229.116 20.028C229.116 19.38 228.612 18.858 227.946 18.858C227.298 18.858 226.776 19.38 226.776 20.028C226.776 20.676 227.298 21.198 227.946 21.198ZM232.701 12.144H231.009L232.989 15.438L231.009 18.714H232.701L234.681 15.438L232.701 12.144ZM235.761 12.144H234.069L236.049 15.438L234.069 18.714H235.761L237.741 15.438L235.761 12.144Z" fill="#111111"/>
</svg>
