<?xml version="1.0" encoding="utf-8"?>
<!-- Generator: Adobe Illustrator 23.0.1, SVG Export Plug-In . SVG Version: 6.00 Build 0)  -->
<svg version="1.1" id="Слой_1" xmlns="http://www.w3.org/2000/svg" xmlns:xlink="http://www.w3.org/1999/xlink" x="0px" y="0px"
	 viewBox="0 0 21.1 30" style="enable-background:new 0 0 21.1 30;" xml:space="preserve">
<style type="text/css">
	.st0{fill:#61A41E;}
	.st1{fill:#111111;}
</style>
<path class="st0" d="M10.6,0C4.7,0,0,4.8,0,10.7v8.5C0,25.2,4.7,30,10.6,30c5.8,0,10.6-4.8,10.6-10.7v-8.6C21.1,4.8,16.4,0,10.6,0z
	 M19.1,19.3c0,4.8-3.8,8.7-8.6,8.7C5.8,28,2,24.1,2,19.3v-8.5C2,5.9,5.8,2,10.6,2c4.7,0,8.6,3.9,8.6,8.7V19.3z"/>
<path class="st1" d="M10.6,8.2c-0.5,0-1,0.4-1,1v3.5c0,0.5,0.4,1,1,1s1-0.4,1-1V9.2C11.6,8.7,11.1,8.2,10.6,8.2z"/>
</svg>
