<svg width="83" height="101" viewBox="0 0 83 101" fill="none" xmlns="http://www.w3.org/2000/svg">
<path d="M22.5182 71.4912C22.6981 71.1868 23.0255 71 23.3791 71H65.1315C65.4852 71 65.8125 71.1868 65.9924 71.4912L79.1083 93.6848C79.5023 94.3514 79.0218 95.1936 78.2474 95.1936H10.2632C9.48886 95.1936 9.00832 94.3514 9.40227 93.6848L22.5182 71.4912Z" fill="#61A41E"/>
<path d="M16.3808 75.653C16.4701 75.4984 16.6352 75.4032 16.8137 75.4032H61.4842C61.6627 75.4032 61.8277 75.4984 61.9171 75.653L75.265 98.7498C75.4576 99.0831 75.2171 99.5 74.8321 99.5H3.46579C3.08079 99.5 2.84025 99.0831 3.03288 98.7498L1.73416 97.9992L3.03288 98.7498L16.3808 75.653Z" stroke="#111111" stroke-width="3"/>
<path d="M81.3792 31.7242H80.8523L81.2336 30.9617C81.363 30.7028 81.4078 30.4097 81.3614 30.124C81.315 29.8382 81.18 29.5743 80.9753 29.3696L79.6795 28.0739C78.4841 26.8785 76.8628 26.207 75.1722 26.207C73.4817 26.207 71.8604 26.8786 70.665 28.074L69.3693 29.3696C69.1647 29.5743 69.0296 29.8382 68.9832 30.124C68.9369 30.4097 68.9816 30.7028 69.1111 30.9617L69.4923 31.7242H66.2068V27.5863C66.2068 27.2205 66.0615 26.8696 65.8028 26.611C65.5441 26.3523 65.1933 26.207 64.8275 26.207H62.0689V13.7932C62.0689 13.4274 61.9235 13.0766 61.6649 12.8179C61.4062 12.5592 61.0554 12.4139 60.6896 12.4139H38.6206C38.2548 12.4139 37.904 12.5592 37.6453 12.8179C37.3867 13.0766 37.2413 13.4274 37.2413 13.7932V26.207H34.4827C34.1169 26.207 33.7661 26.3523 33.5074 26.611C33.2487 26.8696 33.1034 27.2205 33.1034 27.5863V31.7242H26.0681C25.7481 30.1676 24.9012 28.7689 23.6703 27.7639C22.4393 26.7589 20.8995 26.209 19.3103 26.207H16.5517V24.4544C17.0438 24.1709 17.4362 23.7423 17.6752 23.2271C17.9143 22.7119 17.9881 22.1355 17.8868 21.5767C17.7855 21.0179 17.5139 20.5041 17.1092 20.1057C16.7045 19.7072 16.1865 19.4437 15.6262 19.3511L13.1643 12.7858C13.5713 12.293 13.7937 11.6737 13.7931 11.0346C13.7931 10.9754 13.7879 10.9175 13.7842 10.8592L22.2288 5.22943C22.4157 5.32221 22.6126 5.39328 22.8156 5.44127L22.3447 6.06911C22.2322 6.21918 22.1515 6.39062 22.1075 6.57295C22.0635 6.75528 22.0571 6.94467 22.0888 7.12954C22.1205 7.31441 22.1895 7.49088 22.2917 7.64816C22.3939 7.80544 22.5271 7.94022 22.6832 8.04428L26.3239 10.4715L27.6049 18.1579C27.6499 18.4281 27.7743 18.6788 27.9624 18.878C28.1504 19.0772 28.3935 19.2159 28.6607 19.2764C28.9278 19.337 29.207 19.3166 29.4625 19.2178C29.718 19.1191 29.9383 18.9466 30.0954 18.7221L39.7506 4.92905C39.8953 4.72235 39.9805 4.47992 39.997 4.22814C40.0134 3.97637 39.9605 3.7249 39.844 3.5011C39.7275 3.2773 39.5518 3.08975 39.3361 2.95886C39.1204 2.82797 38.8729 2.75875 38.6206 2.75874H32.1417L28.3513 0.231801C28.0579 0.0361335 27.7008 -0.0397316 27.3532 0.0198003C27.0057 0.0793322 26.6941 0.269738 26.4827 0.551878L25.8463 1.40034C25.5465 0.870026 25.0796 0.453933 24.5183 0.217063C23.9571 -0.0198075 23.3332 -0.0641152 22.7441 0.0910621C22.1551 0.246239 21.634 0.592161 21.2623 1.07479C20.8906 1.55742 20.6892 2.14957 20.6896 2.75874C20.6896 2.81796 20.6948 2.87589 20.6985 2.9342L12.254 8.56391C11.8989 8.38821 11.5102 8.29112 11.1142 8.27927C10.7182 8.26741 10.3243 8.34106 9.95941 8.49521C9.59448 8.64935 9.26707 8.88036 8.99949 9.17249C8.73192 9.46462 8.53047 9.811 8.40888 10.188C8.28729 10.5651 8.24841 10.9639 8.2949 11.3573C8.34139 11.7507 8.47215 12.1295 8.67827 12.4678C8.88439 12.8061 9.16103 13.096 9.48932 13.3177C9.81761 13.5394 10.1899 13.6877 10.5807 13.7526L13.0426 20.3179C12.788 20.6267 12.6038 20.9873 12.5028 21.3746C12.4018 21.7618 12.3865 22.1665 12.458 22.5603C12.5294 22.9541 12.6859 23.3276 12.9165 23.6547C13.1471 23.9818 13.4462 24.2547 13.7931 24.4544V26.207H12.4138C10.8246 26.2091 9.28481 26.7589 8.05383 27.7639C6.82285 28.769 5.976 30.1676 5.65601 31.7242H1.37931C1.01349 31.7242 0.662664 31.8695 0.403994 32.1282C0.145324 32.3869 3.65809e-06 32.7377 0 33.1035V40.0001C3.65809e-06 40.3659 0.145324 40.7167 0.403994 40.9754C0.662664 41.234 1.01349 41.3794 1.37931 41.3794H4.13793V75.8621C4.13793 76.2279 4.28325 76.5787 4.54192 76.8374C4.80059 77.0961 5.15142 77.2414 5.51723 77.2414H6.89654V78.6207C6.89654 78.9865 7.04186 79.3373 7.30053 79.596C7.5592 79.8547 7.91003 80 8.27585 80C8.64167 80 8.9925 79.8547 9.25117 79.596C9.50984 79.3373 9.65516 78.9865 9.65516 78.6207V77.2414H13.7931V78.6207C13.7931 78.9865 13.9384 79.3373 14.1971 79.596C14.4557 79.8547 14.8066 80 15.1724 80C15.5382 80 15.889 79.8547 16.1477 79.596C16.4064 79.3373 16.5517 78.9865 16.5517 78.6207V77.2414H27.5862V78.6207C27.5862 78.9865 27.7315 79.3373 27.9902 79.596C28.2488 79.8547 28.5997 80 28.9655 80C29.3313 80 29.6821 79.8547 29.9408 79.596C30.1995 79.3373 30.3448 78.9865 30.3448 78.6207V77.2414H33.1034C33.4692 77.2414 33.82 77.0961 34.0787 76.8374C34.3374 76.5787 34.4827 76.2279 34.4827 75.8621V67.5862H70.3447V75.8621C70.3447 76.2279 70.4901 76.5787 70.7487 76.8374C71.0074 77.0961 71.3582 77.2414 71.724 77.2414H73.1033V78.6207C73.1033 78.9865 73.2487 79.3373 73.5073 79.596C73.766 79.8547 74.1168 80 74.4827 80C74.8485 80 75.1993 79.8547 75.458 79.596C75.7166 79.3373 75.862 78.9865 75.862 78.6207V77.2414H77.2413C77.6071 77.2414 77.9579 77.0961 78.2166 76.8374C78.4753 76.5787 78.6206 76.2279 78.6206 75.8621V41.3794H81.3792C81.745 41.3794 82.0958 41.234 82.3545 40.9754C82.6132 40.7167 82.7585 40.3659 82.7585 40.0001V33.1035C82.7585 32.7377 82.6132 32.3869 82.3545 32.1282C82.0958 31.8695 81.745 31.7242 81.3792 31.7242ZM27.9067 3.25089L30.959 5.28567C31.1856 5.43675 31.4518 5.51736 31.7241 5.51735H35.9715L29.7711 14.375L28.9468 9.42848C28.9157 9.24244 28.8469 9.06474 28.7444 8.90636C28.642 8.74798 28.5082 8.61228 28.3513 8.50765L25.4265 6.55781L27.9067 3.25089ZM72.0231 30.6172L72.6156 30.0247C72.9513 29.6889 73.3499 29.4226 73.7886 29.2409C74.2272 29.0591 74.6974 28.9656 75.1722 28.9656C75.647 28.9656 76.1172 29.0591 76.5559 29.2408C76.9945 29.4225 77.3931 29.6888 77.7289 30.0246L78.3215 30.6172L77.7681 31.7242H72.5765L72.0231 30.6172ZM39.9999 15.1725H59.3103V26.207H56.5516V26.2118C55.379 26.2363 54.2263 26.5199 53.1761 27.0423C52.4602 27.3991 51.6715 27.5853 50.8716 27.5863H48.4386C47.6387 27.5853 46.85 27.3991 46.1341 27.0423C45.0839 26.5199 43.9312 26.2363 42.7586 26.2118V26.207H39.9999V15.1725ZM35.862 28.9656H42.5957C43.3956 28.9666 44.1844 29.1528 44.9003 29.5096C45.9994 30.0575 47.2105 30.3434 48.4386 30.3449H50.8716C52.0997 30.3434 53.3108 30.0575 54.4099 29.5096C55.1258 29.1528 55.9146 28.9666 56.7145 28.9656H63.4482V31.7242H35.862V28.9656ZM12.4138 28.9656H19.3103C20.1658 28.9666 21 29.2323 21.6986 29.7262C22.3971 30.2201 22.9257 30.918 23.2118 31.7242H8.51225C8.7984 30.918 9.32699 30.2201 10.0255 29.7262C10.724 29.2323 11.5583 28.9666 12.4138 28.9656ZM9.65516 41.3794V74.4828H6.89654V41.3794H9.65516ZM12.4138 52.4138H31.7241V60.6897H12.4138V52.4138ZM31.7241 49.6552H12.4138V41.3794H31.7241V49.6552ZM12.4138 74.4828V63.4483H31.7241V74.4828H12.4138ZM34.4827 64.8276V41.3794H70.3447V64.8276H34.4827ZM75.862 74.4828H73.1033V41.3794H75.862V74.4828ZM79.9999 38.6208H2.75862V34.4828H79.9999V38.6208Z" fill="#111111"/>
<path d="M17.931 54.1724H26.2069V56.931H17.931V54.1724Z" fill="#111111"/>
<path d="M17.931 65.2069H26.2069V67.9655H17.931V65.2069Z" fill="#111111"/>
<path d="M17.931 43.1379H26.2069V45.8966H17.931V43.1379Z" fill="#111111"/>
</svg>
