<svg width="67" height="102" viewBox="0 0 67 102" fill="none" xmlns="http://www.w3.org/2000/svg">
<path d="M16.466 7.01336C16.0553 6.14757 15.9123 5.17336 16.052 4.1975C16.3921 1.80386 18.6034 0 21.1943 0H56.8057C59.3966 0 61.6079 1.80386 61.948 4.19586C62.0876 5.17336 61.9447 6.14757 61.5356 7.01172C58.5324 13.3515 57.0719 20.7789 57.0719 29.7193V31.4591C56.9996 31.4837 56.9339 31.5199 56.8616 31.5478C56.7696 31.5839 56.6792 31.6217 56.5889 31.6628C56.4065 31.7466 56.2324 31.8435 56.0648 31.9486C55.9908 31.9946 55.9153 32.0357 55.8446 32.085C55.383 32.4086 54.9805 32.8095 54.6568 33.2728C54.6075 33.3434 54.5664 33.419 54.5204 33.4929C54.4153 33.6621 54.3184 33.8363 54.2346 34.0186C54.1935 34.109 54.1557 34.1994 54.1196 34.2914C54.0473 34.4786 53.9898 34.6709 53.9405 34.868C53.9192 34.9567 53.8929 35.0421 53.8748 35.1325C53.8222 35.4184 53.7861 35.7141 53.7861 36.0164V46H24.2139V36.0164C24.2139 35.7141 24.1778 35.4216 24.1252 35.1358C24.1071 35.0421 24.0808 34.9534 24.0578 34.8631C24.0102 34.6741 23.9543 34.4901 23.8853 34.3111C23.8459 34.2059 23.8032 34.1041 23.7555 34.0039C23.6849 33.8527 23.6044 33.7098 23.519 33.5669C23.4549 33.4584 23.3941 33.35 23.3202 33.2465C23.2512 33.1512 23.1707 33.0658 23.0967 32.9754C22.6991 32.4941 22.2129 32.0965 21.6592 31.7991C21.6411 31.7893 21.6231 31.7794 21.605 31.7696C21.393 31.6595 21.1745 31.5675 20.9462 31.4886C20.9396 31.487 20.9347 31.4837 20.9297 31.4821V29.7193C20.9281 20.7789 19.4676 13.3515 16.466 7.01336Z" fill="#61A41E"/>
<path d="M16.466 7.01336C16.0553 6.14757 15.9123 5.17336 16.052 4.1975C16.3921 1.80386 18.6034 0 21.1943 0H56.8057C59.3966 0 61.6079 1.80386 61.948 4.19586C62.0876 5.17336 61.9447 6.14757 61.5356 7.01172C58.5324 13.3515 57.0719 20.7789 57.0719 29.7193V31.4591C56.9996 31.4837 56.9339 31.5199 56.8616 31.5478C56.7696 31.5839 56.6792 31.6217 56.5889 31.6628C56.4065 31.7466 56.2324 31.8435 56.0648 31.9486C55.9908 31.9946 55.9153 32.0357 55.8446 32.085C55.383 32.4086 54.9805 32.8095 54.6568 33.2728C54.6075 33.3434 54.5664 33.419 54.5204 33.4929C54.4153 33.6621 54.3184 33.8363 54.2346 34.0186C54.1935 34.109 54.1557 34.1994 54.1196 34.2914C54.0473 34.4786 53.9898 34.6709 53.9405 34.868C53.9192 34.9567 53.8929 35.0421 53.8748 35.1325C53.8222 35.4184 53.7861 35.7141 53.7861 36.0164V46H24.2139V36.0164C24.2139 35.7141 24.1778 35.4216 24.1252 35.1358C24.1071 35.0421 24.0808 34.9534 24.0578 34.8631C24.0102 34.6741 23.9543 34.4901 23.8853 34.3111C23.8459 34.2059 23.8032 34.1041 23.7555 34.0039C23.6849 33.8527 23.6044 33.7098 23.519 33.5669C23.4549 33.4584 23.3941 33.35 23.3202 33.2465C23.2512 33.1512 23.1707 33.0658 23.0967 32.9754C22.6991 32.4941 22.2129 32.0965 21.6592 31.7991L21.605 31.7696C21.393 31.6595 21.1745 31.5675 20.9462 31.4886C20.9396 31.487 20.9347 31.4837 20.9297 31.4821V29.7193C20.9281 20.7789 19.4676 13.3515 16.466 7.01336Z" fill="#61A41E"/>
<path d="M60.3 87.085V85.3333C60.3 85.2833 60.2766 85.2417 60.2715 85.1933C60.2615 85.0783 60.238 84.9717 60.2045 84.8633C60.1744 84.7617 60.1409 84.665 60.0923 84.5733C60.0437 84.4783 59.9834 84.3967 59.9164 84.3133C59.8494 84.2283 59.7808 84.15 59.6987 84.08C59.6199 84.0133 59.5345 83.96 59.4424 83.9083C59.3436 83.8517 59.2448 83.805 59.1342 83.7683C59.0873 83.7533 59.0505 83.72 59.0019 83.7083L38.525 79.0067V77H35.175V73.6667H38.525V68.6667H40.2V64.3567L45.7141 69.8433C45.8682 69.9983 46.0541 70.12 46.2602 70.205C46.4645 70.2883 46.6823 70.3333 46.9 70.3333H51.925C52.8513 70.3333 53.6 69.5867 53.6 68.6667C53.6 67.7467 52.8513 67 51.925 67H47.5935L44.2435 63.6667H61.975V41.8717C61.975 39.1867 59.7774 37 57.0773 37H55.275V35.4833C55.275 26.9183 56.6569 19.85 59.5027 13.8733C60.2012 12.4033 60.4457 10.76 60.2129 9.12C59.6317 5.06167 55.9517 2 51.6537 2H15.3464C11.0483 2 7.36833 5.06167 6.7871 9.12167C6.5526 10.7617 6.79883 12.405 7.49898 13.875C10.3431 19.85 11.725 26.9183 11.725 35.4833V37H9.9227C7.2226 37 5.025 39.1867 5.025 41.8717V63.6667H26.8V68.6667H28.475V73.6667H31.825V77H28.475V79.0067L7.99813 83.7083C7.94955 83.72 7.9127 83.7533 7.8658 83.7683C7.75525 83.8033 7.65643 83.8517 7.5576 83.9083C7.46548 83.96 7.38005 84.0133 7.30133 84.08C7.21925 84.15 7.15058 84.2283 7.08358 84.3133C7.01658 84.3967 6.95795 84.4783 6.9077 84.5733C6.85912 84.6667 6.8273 84.7617 6.79548 84.8633C6.76198 84.9717 6.73853 85.0783 6.72848 85.1933C6.72345 85.2417 6.7 85.2833 6.7 85.3333V87.085C2.9413 87.505 0 90.65 0 94.5C0 98.635 3.38182 102 7.5375 102C11.6932 102 15.075 98.635 15.075 94.5C15.075 91.245 12.9679 88.4967 10.05 87.46V86.6583L28.475 82.4283V82.9767L24.4181 87.0133C24.3729 87.0117 24.3327 87 24.2875 87C20.1318 87 16.75 90.365 16.75 94.5C16.75 98.635 20.1318 102 24.2875 102C28.4432 102 31.825 98.635 31.825 94.5C31.825 91.7533 30.3175 89.3717 28.0981 88.065L30.8435 85.3333H36.1566L38.9019 88.065C36.6825 89.3717 35.175 91.7533 35.175 94.5C35.175 98.635 38.5568 102 42.7125 102C46.8682 102 50.25 98.635 50.25 94.5C50.25 90.365 46.8682 87 42.7125 87C42.6673 87 42.6271 87.0117 42.5819 87.0133L38.525 82.9767V82.4283L56.95 86.6583V87.46C54.0322 88.495 51.925 91.245 51.925 94.5C51.925 98.635 55.3068 102 59.4625 102C63.6182 102 67 98.635 67 94.5C67 90.65 64.0587 87.505 60.3 87.085ZM10.5257 12.4483C10.107 11.57 9.96122 10.5817 10.1036 9.59167C10.4503 7.16333 12.7049 5.33333 15.3464 5.33333H51.6537C54.2951 5.33333 56.5497 7.16333 56.8964 9.59C57.0388 10.5817 56.8931 11.57 56.476 12.4467C53.4141 18.8783 51.925 26.4133 51.925 35.4833V37.2483C51.8513 37.2733 51.7843 37.31 51.7106 37.3383C51.6168 37.375 51.5247 37.4133 51.4326 37.455C51.2466 37.54 51.0691 37.6383 50.8982 37.745C50.8229 37.7917 50.7458 37.8333 50.6738 37.8833C50.2031 38.2117 49.7927 38.6183 49.4627 39.0883C49.4125 39.16 49.3706 39.2367 49.3237 39.3117C49.2165 39.4833 49.1177 39.66 49.0323 39.845C48.9904 39.9367 48.9519 40.0283 48.915 40.1217C48.8413 40.3117 48.7827 40.5067 48.7325 40.7067C48.7107 40.7967 48.6839 40.8833 48.6655 40.975C48.6119 41.265 48.575 41.565 48.575 41.8717V52H18.425V41.8717C18.425 41.565 18.3881 41.2683 18.3345 40.9783C18.3161 40.8833 18.2893 40.7933 18.2659 40.7017C18.2173 40.51 18.1603 40.3233 18.09 40.1417C18.0498 40.035 18.0063 39.9317 17.9577 39.83C17.8857 39.6767 17.8036 39.5317 17.7165 39.3867C17.6511 39.2767 17.5892 39.1667 17.5138 39.0617C17.4435 38.965 17.3614 38.8783 17.286 38.7867C16.8806 38.2983 16.3849 37.895 15.8204 37.5933C15.802 37.5833 15.7835 37.5733 15.7651 37.5633C15.549 37.4517 15.3263 37.3583 15.0934 37.2783C15.0867 37.2767 15.0817 37.2733 15.0767 37.2717V35.4833C15.075 26.4133 13.5859 18.8783 10.5257 12.4483ZM8.375 60.3333V41.8717C8.375 41.0233 9.06845 40.3333 9.9227 40.3333H11.8523H13.5273C14.3816 40.3333 15.075 41.0233 15.075 41.8717V55.3333H51.925V41.8717C51.925 41.0233 52.6185 40.3333 53.6 40.3333H55.275H57.0773C57.9316 40.3333 58.625 41.0233 58.625 41.8717V60.3333H40.2H26.8H8.375ZM36.85 63.6667V65.3333H30.15V63.6667H36.85ZM35.175 68.6667V70.3333H31.825V68.6667H35.175ZM11.725 94.5C11.725 96.7967 9.84733 98.6667 7.5375 98.6667C5.22768 98.6667 3.35 96.7967 3.35 94.5C3.35 92.2033 5.22768 90.3333 7.5375 90.3333C9.84733 90.3333 11.725 92.2033 11.725 94.5ZM24.2875 98.6667C21.9777 98.6667 20.1 96.7967 20.1 94.5C20.1 92.2033 21.9777 90.3333 24.2875 90.3333C26.5973 90.3333 28.475 92.2033 28.475 94.5C28.475 96.7967 26.5973 98.6667 24.2875 98.6667ZM46.9 94.5C46.9 96.7967 45.0223 98.6667 42.7125 98.6667C40.4027 98.6667 38.525 96.7967 38.525 94.5C38.525 92.2033 40.4027 90.3333 42.7125 90.3333C45.0223 90.3333 46.9 92.2033 46.9 94.5ZM31.825 80.3333H35.175V82H31.825V80.3333ZM59.4625 98.6667C57.1527 98.6667 55.275 96.7967 55.275 94.5C55.275 92.2033 57.1527 90.3333 59.4625 90.3333C61.7723 90.3333 63.65 92.2033 63.65 94.5C63.65 96.7967 61.7723 98.6667 59.4625 98.6667Z" fill="#111111"/>
</svg>
