<svg width="149" height="79" viewBox="0 0 149 79" fill="none" xmlns="http://www.w3.org/2000/svg">
<path d="M103.5 13.5C103.504 10.1878 106.86 7.50352 111 7.5H133.5C137.64 7.50352 140.995 10.1878 141 13.5V27.7839C136.596 28.6907 133.513 31.8621 133.5 35.5V38.5924C132.285 38.0228 130.931 37.6678 129.53 37.5508C129.198 37.5234 128.832 37.4999 128.5 37.4999H108.5C106.739 37.5079 105.013 37.892 103.5 38.6125V13.5ZM103.5 45.4998C103.503 43.2918 105.74 41.5024 108.5 41.4998H128.5C128.666 41.4998 128.852 41.5155 129.027 41.53C131.576 41.7313 133.513 43.4512 133.5 45.4996V53.4995H103.5L103.5 45.4998ZM58.5 13.5C58.5044 10.1878 61.8598 7.50352 66 7.5H90.9999C95.1401 7.50352 98.4954 10.1878 98.4998 13.5V38.5921C97.2846 38.0226 95.9311 37.6675 94.5301 37.5506C94.1982 37.5231 93.832 37.4997 93.4998 37.4997H63.5001C61.7394 37.5077 60.0132 37.8918 58.5 38.6123V13.5ZM58.5 45.4998C58.5032 43.2918 60.7401 41.5024 63.5001 41.4998H93.5001C93.6619 41.4998 93.842 41.5147 94.0137 41.5289C94.0183 41.5293 94.0228 41.5296 94.0274 41.53C96.5756 41.7313 98.5133 43.4512 98.5001 45.4996V49.4999V53.5H58.5V45.4998ZM53.5002 53.5H23.5003V45.5001C23.5035 43.292 25.74 41.5026 28.5004 41.5H48.5001C48.6619 41.5 48.8421 41.5149 49.0138 41.5291C49.0183 41.5295 49.0229 41.5299 49.0275 41.5303C51.5757 41.7316 53.5134 43.4514 53.5002 45.4998V47.4998V53.5ZM16.0003 13.5C16.0047 10.1878 19.3601 7.50352 23.5003 7.5H46.0002C50.1405 7.50352 53.4958 10.1878 53.5002 13.5V38.5921C52.285 38.0226 50.9315 37.6675 49.5305 37.5506C49.1986 37.5231 48.8324 37.4997 48.5001 37.4997H28.5001C26.7393 37.5077 25.0132 37.8918 23.5 38.6123V35.4996C23.4865 31.8618 20.4036 28.6903 16 27.7835L16.0003 13.5Z" fill="#61A41E"/>
<path d="M16.0003 13.5C16.0047 10.1878 19.3601 7.50352 23.5003 7.5H46.0002C50.1405 7.50352 53.4958 10.1878 53.5002 13.5V38.5921C52.285 38.0226 50.9315 37.6675 49.5305 37.5506C49.1986 37.5231 48.8324 37.4997 48.5001 37.4997H28.5001C26.7393 37.5077 25.0132 37.8918 23.5 38.6123V35.4996C23.4865 31.8618 20.4036 28.6903 16 27.7835L16.0003 13.5Z" fill="#61A41E"/>
<path d="M58.5 13.5C58.5044 10.1878 61.8598 7.50352 66 7.5H90.9999C95.1401 7.50352 98.4954 10.1878 98.4998 13.5V38.5921C97.2846 38.0226 95.9311 37.6675 94.5301 37.5506C94.1982 37.5231 93.832 37.4997 93.4998 37.4997H63.5001C61.7394 37.5077 60.0132 37.8918 58.5 38.6123V13.5Z" fill="#61A41E"/>
<path d="M103.5 13.5C103.504 10.1878 106.86 7.50352 111 7.5H133.5C137.64 7.50352 140.995 10.1878 141 13.5V27.7839C136.596 28.6907 133.513 31.8621 133.5 35.5V38.5924C132.285 38.0228 130.931 37.6678 129.53 37.5508C129.198 37.5234 128.832 37.4999 128.5 37.4999H108.5C106.739 37.5079 105.013 37.892 103.5 38.6125V13.5Z" fill="#61A41E"/>
<path d="M103.5 45.4998C103.503 43.2918 105.74 41.5024 108.5 41.4998H128.5C128.666 41.4998 128.852 41.5155 129.027 41.53C131.576 41.7313 133.513 43.4512 133.5 45.4996V53.4995H103.5L103.5 45.4998Z" fill="#61A41E"/>
<path d="M58.5 45.4998C58.5032 43.2918 60.7401 41.5024 63.5001 41.4998H93.5001C93.6619 41.4998 93.842 41.5147 94.0137 41.5289L94.0274 41.53C96.5756 41.7313 98.5133 43.4512 98.5001 45.4996V49.4999V53.5H58.5V45.4998Z" fill="#61A41E"/>
<path d="M53.5002 53.5H23.5003V45.5001C23.5035 43.292 25.74 41.5026 28.5004 41.5H48.5001C48.6619 41.5 48.8421 41.5149 49.0138 41.5291L49.0275 41.5303C51.5757 41.7316 53.5134 43.4514 53.5002 45.4998V47.4998V53.5Z" fill="#61A41E"/>
<path d="M141.9 24.3L141.5 24.2V9.5C141.5 4.3 136.1 0 129.5 0H107C103.2 0 99.6 1.5 97.4 3.9L97 4.3L96.6 3.9C94.4 1.5 90.8 0 87 0H62C58.2 0 54.6 1.5 52.4 3.9L52 4.3L51.6 3.9C49.4 1.5 45.8 0 42 0H19.5C12.9 0 7.5 4.3 7.5 9.5V24.2L7.1 24.3C2.9 25.2 0 28.1 0 31.5V69.5C0 69.9 0.2 70.2 0.5 70.5C0.9 70.8 1.4 71 2 71H2.5V73.5C2.5 76.5 5.6 79 9.5 79H17C20.9 79 24 76.5 24 73.5V71H125V73.5C125 76.5 128.1 79 132 79H139.5C143.4 79 146.5 76.5 146.5 73.5V71H147C147.5 71 148.1 70.8 148.5 70.5C148.8 70.2 149 69.9 149 69.5V31.5C149 28.1 146.1 25.1 141.9 24.3ZM99 9.5C99 5.9 102.6 3 107 3H129.5C133.9 3 137.5 5.9 137.5 9.5V24.2L137.1 24.3C132.9 25.2 130 28.1 130 31.5V35.4L129.3 35.1C128.1 34.6 126.9 34.2 125.5 34.1C125.2 34.1 124.8 34.1 124.5 34.1H104.5C102.8 34.1 101.2 34.5 99.7 35.2L99 35.5V9.5ZM99 41.5C99 39 101.5 37 104.5 37H124.5C124.7 37 124.8 37 125 37C127.9 37.2 130 39.1 130 41.5V50H99V41.5ZM54 9.5C54 5.9 57.6 3 62 3H87C91.4 3 95 5.9 95 9.5V35.4L94.3 35.1C93.1 34.6 91.9 34.2 90.5 34.1C90.2 34.1 89.8 34.1 89.5 34.1H59.5C57.8 34.1 56.2 34.5 54.7 35.2L54 35.5V9.5ZM54 41.5C54 39 56.5 37 59.5 37H89.5C89.7 37 89.8 37 90 37C92.9 37.2 95 39.1 95 41.5V50H54V41.5ZM11.5 9.5C11.5 5.9 15.1 3 19.5 3H42C46.4 3 50 5.9 50 9.5V35.4L49.3 35.1C48.1 34.6 46.9 34.2 45.5 34.1C45.2 34.1 44.8 34.1 44.5 34.1H24.5C22.8 34.1 21.2 34.5 19.7 35.2L19 35.5V31.5C19 28.1 16.1 25.1 11.9 24.3L11.5 24.2V9.5ZM50 41.5V50H19V41.5C19 39 21.5 37 24.5 37H44.5C44.7 37 44.9 37 45.1 37C47.9 37.3 50 39.2 50 41.5ZM4 68V31.5C4 29 6.5 27 9.5 27C12.5 27 15 29 15 31.5V68H4ZM20 73.5C20 74.9 18.7 76 17 76H9.5C7.8 76 6.5 74.9 6.5 73.5V71H20V73.5ZM19 68V53H130V68H19ZM142.5 73.5C142.5 74.9 141.2 76 139.5 76H132C130.3 76 129 74.9 129 73.5V71H142.5V73.5ZM145 68H134V31.5C134 29 136.5 27 139.5 27C142.5 27 145 29 145 31.5V68Z" fill="#111111"/>
</svg>
