<svg width="78" height="100" viewBox="0 0 78 100" fill="none" xmlns="http://www.w3.org/2000/svg">
<path d="M12.0147 78.2015C14.6422 75.6265 18.2419 74.0347 22.2149 74.0347H58.6313C62.6043 74.0347 66.2022 75.6265 68.8315 78.2015L69.0591 77.3856C69.3887 76.199 69.5562 74.9833 69.5562 73.7694C69.5562 73.157 69.5143 72.5355 69.4287 71.9213L65.0551 40.2748C64.1356 33.622 58.3673 28.6047 51.6375 28.6047H29.2087C22.479 28.6047 16.7106 33.622 15.7911 40.2748L11.4175 71.9213C11.3337 72.5355 11.29 73.157 11.29 73.7694C11.29 74.9814 11.4576 76.1971 11.7871 77.382L12.0147 78.2015Z" fill="#61A41E"/>
<path d="M50.9418 40.7128L53.3644 58.2854L56.5595 57.8451L54.1369 40.2725C53.7676 37.587 51.3531 35.4838 48.6434 35.4838H45.1611V38.7096H48.6434C49.7595 38.7096 50.7902 39.608 50.9418 40.7128Z" fill="#111111"/>
<path d="M70.871 80.6452C73.0226 77.2097 74.1936 73.179 74.1936 69.1194C74.1936 68.1339 74.1258 67.1371 73.9903 66.1581L70.1161 38.0677C69.1903 31.3581 65.1936 25.6919 59.6774 22.4048V16.129H61.2903C63.9581 16.129 66.129 13.9581 66.129 11.2903V8.06452C66.129 3.61774 62.5113 0 58.0645 0H19.3548C14.9081 0 11.2903 3.61774 11.2903 8.06452V11.2903C11.2903 13.9581 13.4613 16.129 16.129 16.129H17.7419V22.4065C12.2258 25.6919 8.22903 31.3597 7.30323 38.0694L3.42903 66.1597C3.29355 67.1371 3.22581 68.1323 3.22581 69.1194C3.22581 73.179 4.39677 77.2097 6.54839 80.6452H0V85.4839C0 93.4887 6.5129 100 14.5161 100H62.9032C70.9064 100 77.4194 93.4887 77.4194 85.4839V80.6452H70.871ZM14.5161 11.2903V8.06452C14.5161 5.39677 16.6871 3.22581 19.3548 3.22581H58.0645C60.7323 3.22581 62.9032 5.39677 62.9032 8.06452V11.2903C62.9032 12.179 62.179 12.9032 61.2903 12.9032H16.129C15.2403 12.9032 14.5161 12.179 14.5161 11.2903ZM20.9677 16.129H56.4516V20.829C54.0161 19.879 51.3806 19.3548 48.6436 19.3548H28.7758C26.0387 19.3548 23.4032 19.879 20.9677 20.829V16.129ZM6.62419 66.5984L10.4984 38.5081C11.7516 29.429 19.6097 22.5806 28.7758 22.5806H48.6436C57.8097 22.5806 65.6677 29.429 66.921 38.5081L70.7952 66.5984C70.9097 67.4323 70.9677 68.2806 70.9677 69.1194C70.9677 72.1984 70.1694 75.2516 68.7016 77.9516C66.8629 72.0419 61.3435 67.7419 54.8387 67.7419H22.5806C16.0758 67.7419 10.5565 72.0435 8.71774 77.95C7.25 75.2516 6.45161 72.1984 6.45161 69.1194C6.45161 68.2806 6.50968 67.4323 6.62419 66.5984ZM66 80.6452H11.4194C12.2065 75.1839 16.9048 70.9677 22.5806 70.9677H54.8387C60.5145 70.9677 65.2129 75.1839 66 80.6452ZM74.1936 85.4839C74.1936 91.7081 69.129 96.7742 62.9032 96.7742H14.5161C8.29032 96.7742 3.22581 91.7081 3.22581 85.4839V83.871H74.1936V85.4839Z" fill="#111111"/>
<path d="M54 60.4454L57.2224 60L57.6386 63.0104L54.4162 63.4559L54 60.4454Z" fill="#111111"/>
</svg>
