<svg width="99" height="98" viewBox="0 0 99 98" fill="none" xmlns="http://www.w3.org/2000/svg">
<rect x="22.12" y="10.6" width="76.8" height="76.8" rx="4" fill="#61A41E"/>
<path d="M18.885 70.5004C19.1596 70.7749 19.5196 70.9124 19.8795 70.9124C20.2393 70.9124 20.5993 70.7751 20.874 70.5004L21.8208 69.5535L22.7677 70.5004C23.0424 70.7749 23.4024 70.9124 23.7622 70.9124C24.122 70.9124 24.482 70.7751 24.7567 70.5004C25.3059 69.9512 25.3059 69.0608 24.7567 68.5118L23.8096 67.5647L24.7567 66.6177C25.3059 66.0685 25.3059 65.1781 24.7567 64.6291C24.2073 64.0799 23.3171 64.0799 22.7679 64.6291L21.821 65.5759L20.8741 64.6291C20.3248 64.0799 19.4345 64.0799 18.8853 64.6291C18.3361 65.1782 18.3361 66.0687 18.8853 66.6177L19.8324 67.5647L18.8853 68.5118C18.3358 69.0608 18.3358 69.9512 18.885 70.5004Z" fill="#111111"/>
<path d="M46.0641 47.1713C46.3388 47.446 46.6986 47.5833 47.0586 47.5833C47.4184 47.5833 47.7784 47.446 48.0531 47.1713L49.0001 46.2243L49.9472 47.1713C50.2219 47.4458 50.5819 47.5833 50.9417 47.5833C51.3015 47.5833 51.6615 47.446 51.9362 47.1713C52.4854 46.6221 52.4854 45.7317 51.9362 45.1827L50.9891 44.2356L51.9362 43.2886C52.4854 42.7394 52.4854 41.8491 51.9362 41.3C51.387 40.7508 50.4968 40.7506 49.9474 41.3L49 42.2466L48.0529 41.2996C47.5035 40.7504 46.6133 40.7504 46.0641 41.2996C45.5149 41.8488 45.5149 42.7392 46.0641 43.2882L47.0111 44.2353L46.0641 45.1823C45.5149 45.7317 45.5149 46.6221 46.0641 47.1713Z" fill="#111111"/>
<path d="M91.9536 1H67.9287C66.7662 1 65.6312 1.40556 64.7335 2.14188C64.5739 2.27256 64.3679 2.27294 64.2079 2.14188C63.31 1.40556 62.1751 1 61.0126 1H36.9876C35.8249 1 34.6902 1.40556 33.7923 2.14188C33.6327 2.27256 33.4266 2.27294 33.2667 2.14188C32.3688 1.40556 31.2338 1 30.0713 1H6.04637C3.26369 1 1 3.26388 1 6.04637V17.1488C1 17.9254 1.62944 18.5551 2.40625 18.5551C3.18306 18.5551 3.8125 17.9254 3.8125 17.1488V6.04637C3.8125 4.81469 4.81469 3.8125 6.04637 3.8125H30.0715C30.5929 3.8125 31.0812 3.98669 31.4834 4.3165C32.6881 5.30463 34.3707 5.30463 35.5758 4.3165C35.9778 3.98688 36.4662 3.8125 36.9876 3.8125H61.0126C61.534 3.8125 62.0222 3.98669 62.4244 4.3165C63.6293 5.30463 65.3119 5.30463 66.5168 4.3165C66.9188 3.98688 67.4072 3.8125 67.9287 3.8125H91.9536C93.1853 3.8125 94.1875 4.81469 94.1873 6.04637V83.8508C93.5134 83.5167 92.7552 83.3279 91.9534 83.3279H78.94C78.1632 83.3279 77.5338 83.9575 77.5338 84.7341C77.5338 85.5107 78.1632 86.1404 78.94 86.1404H91.9534C93.1851 86.1404 94.1873 87.1426 94.1873 88.3743V90.1326V91.9536C94.1873 93.1853 93.1851 94.1875 91.9534 94.1875H67.9285C67.4071 94.1875 66.9188 94.0133 66.5166 93.6835C65.3118 92.6954 63.6291 92.6954 62.4243 93.6835C62.0223 94.0131 61.5338 94.1875 61.0124 94.1875H36.9874C36.466 94.1875 35.9777 94.0133 35.5756 93.6835C34.3709 92.6954 32.6882 92.6954 31.4832 93.6835C31.0812 94.0131 30.5927 94.1875 30.0713 94.1875H6.04637C4.81469 94.1875 3.8125 93.1853 3.8125 91.9536V90.1326V88.3743C3.8125 87.1426 4.81469 86.1404 6.04637 86.1404H30.0715C30.5929 86.1404 31.0812 86.3146 31.4834 86.6444C32.6881 87.6325 34.3707 87.6325 35.5758 86.6444C35.9778 86.3148 36.4662 86.1404 36.9876 86.1404H61.0127C61.5342 86.1404 62.0224 86.3146 62.4246 86.6444C63.6295 87.6325 65.3121 87.6325 66.517 86.6444C66.919 86.3148 67.4074 86.1404 67.9289 86.1404H73.3891C74.1659 86.1404 74.7953 85.5107 74.7953 84.7341C74.7953 83.9575 74.1659 83.3279 73.3891 83.3279H67.9289C66.7664 83.3279 65.6314 83.7334 64.7335 84.4697C64.5739 84.6004 64.3679 84.6008 64.2079 84.4697C63.31 83.7334 62.1751 83.3279 61.0126 83.3279H36.9876C35.8251 83.3279 34.6902 83.7334 33.7923 84.4697C33.6327 84.6004 33.4266 84.6008 33.2667 84.4697C32.3688 83.7334 31.2338 83.3279 30.0713 83.3279H6.04637C5.24463 83.3279 4.48638 83.5167 3.8125 83.8508V22.5181C3.8125 21.7414 3.18306 21.1118 2.40625 21.1118C1.62944 21.1118 1 21.7414 1 22.5181V88.3743V90.1326V91.9536C1 94.7361 3.26369 97 6.04637 97H30.0713C31.2338 97 32.3688 96.5944 33.2667 95.8581C33.4263 95.7274 33.6323 95.7271 33.7923 95.8581C34.6902 96.5944 35.8251 97 36.9876 97H61.0124C62.1749 97 63.3098 96.5944 64.2077 95.8581C64.3675 95.7274 64.5734 95.7271 64.7333 95.8581C65.6312 96.5944 66.7662 97 67.9287 97H91.9536C94.7363 97 97 94.7361 97 91.9536V90.1326V88.3743V6.04637C97 3.26388 94.7363 1 91.9536 1Z" fill="#111111" stroke="black" stroke-width="0.6"/>
<path d="M18.885 23.9067C19.1596 24.1812 19.5196 24.3186 19.8795 24.3186C20.2393 24.3186 20.5993 24.1814 20.874 23.9067L21.8208 22.9598L22.7677 23.9067C23.0424 24.1812 23.4024 24.3186 23.7622 24.3186C24.122 24.3186 24.482 24.1814 24.7567 23.9067C25.3059 23.3575 25.3059 22.4671 24.7567 21.9181L23.8096 20.971L24.7567 20.0239C25.3059 19.4747 25.3059 18.5843 24.7567 18.0353C24.2073 17.4861 23.3171 17.4861 22.7679 18.0353L21.821 18.9822L20.8741 18.0353C20.3248 17.4861 19.4345 17.4861 18.8853 18.0353C18.3361 18.5845 18.3361 19.4749 18.8853 20.0239L19.8324 20.971L18.8853 21.9181C18.3358 22.4671 18.3358 23.3575 18.885 23.9067Z" fill="#111111"/>
<path d="M18.885 47.1713C19.1596 47.4458 19.5196 47.5832 19.8795 47.5832C20.2393 47.5832 20.5993 47.446 20.874 47.1713L21.8208 46.2244L22.7677 47.1713C23.0424 47.446 23.4022 47.5832 23.7622 47.5832C24.122 47.5832 24.482 47.446 24.7567 47.1713C25.3059 46.6221 25.3059 45.7318 24.7567 45.1827L23.8096 44.2356L24.7567 43.2885C25.3059 42.7393 25.3059 41.8489 24.7567 41.2999C24.2073 40.7507 23.3171 40.7507 22.7679 41.2999L21.821 42.2468L20.8741 41.2999C20.325 40.7507 19.4347 40.7505 18.8853 41.2999C18.3361 41.8491 18.3361 42.7395 18.8853 43.2885L19.8324 44.2356L18.8853 45.1827C18.3358 45.7317 18.3358 46.6221 18.885 47.1713Z" fill="#111111"/>
<path d="M46.0641 23.9067C46.3387 24.1814 46.6986 24.3186 47.0586 24.3186C47.4184 24.3186 47.7784 24.1814 48.0529 23.9067L49.0001 22.9594L49.9474 23.9067C50.2219 24.1814 50.5819 24.3186 50.9417 24.3186C51.3015 24.3186 51.6615 24.1814 51.9362 23.9067C52.4854 23.3575 52.4854 22.4671 51.936 21.9181L50.9889 20.971L51.936 20.0239C52.4854 19.4748 52.4854 18.5845 51.9362 18.0353C51.387 17.4861 50.4966 17.4861 49.9476 18.0353L48.9999 18.9824L48.0527 18.0351C47.5037 17.4858 46.6132 17.4859 46.0641 18.0351C45.5149 18.5843 45.5149 19.4748 46.0642 20.0238L47.0113 20.9708L46.0642 21.9179C45.5149 22.4671 45.5149 23.3575 46.0641 23.9067Z" fill="#111111"/>
<path d="M73.244 47.1713C73.5187 47.4458 73.8787 47.5832 74.2385 47.5832C74.5983 47.5832 74.9583 47.446 75.233 47.1713L76.1799 46.2244L77.1267 47.1713C77.4014 47.446 77.7612 47.5832 78.1212 47.5832C78.4811 47.5832 78.8411 47.446 79.1157 47.1713C79.6649 46.6221 79.6649 45.7318 79.1157 45.1827L78.1687 44.2356L79.1157 43.2885C79.6649 42.7393 79.6649 41.8489 79.1157 41.2999C78.5664 40.7507 77.6761 40.7507 77.1269 41.2999L76.1801 42.2468L75.2332 41.2999C74.6838 40.7507 73.7936 40.7505 73.2444 41.2999C72.6952 41.8491 72.6952 42.7395 73.2444 43.2885L74.1914 44.2356L73.2444 45.1827C72.6948 45.7317 72.6948 46.6221 73.244 47.1713Z" fill="#111111"/>
<path d="M73.244 70.5004C73.5187 70.7749 73.8787 70.9124 74.2385 70.9124C74.5983 70.9124 74.9583 70.7751 75.233 70.5004L76.1799 69.5535L77.1267 70.5004C77.4014 70.7749 77.7614 70.9124 78.1212 70.9124C78.4811 70.9124 78.8411 70.7751 79.1157 70.5004C79.6649 69.9512 79.6649 69.0608 79.1157 68.5118L78.1687 67.5647L79.1157 66.6177C79.6649 66.0685 79.6649 65.1781 79.1157 64.6291C78.5664 64.0799 77.6761 64.0799 77.1269 64.6291L76.1801 65.5759L75.2332 64.6291C74.6838 64.0799 73.7936 64.0799 73.2444 64.6291C72.6952 65.1782 72.6952 66.0687 73.2444 66.6177L74.1914 67.5647L73.2444 68.5118C72.6948 69.0608 72.6948 69.9512 73.244 70.5004Z" fill="#111111"/>
<path d="M46.0641 70.5003C46.3387 70.7749 46.6986 70.9122 47.0586 70.9122C47.4184 70.9122 47.7784 70.7749 48.0529 70.5003L49.0001 69.553L49.9474 70.5003C50.2219 70.7749 50.5819 70.9122 50.9417 70.9122C51.3015 70.9122 51.6615 70.7749 51.9362 70.5003C52.4854 69.9511 52.4854 69.0606 51.936 68.5116L50.9889 67.5646L51.936 66.6175C52.485 66.0685 52.485 65.1783 51.9358 64.6289C51.3866 64.0797 50.4962 64.0795 49.9472 64.6289L48.9999 65.5761L48.0527 64.6289C47.5037 64.0795 46.6132 64.0797 46.0641 64.6289C45.5149 65.1781 45.5149 66.0685 46.0642 66.6175L47.0113 67.5646L46.0642 68.5116C45.5149 69.0608 45.5149 69.9511 46.0641 70.5003Z" fill="#111111"/>
<path d="M73.244 23.9067C73.5187 24.1812 73.8787 24.3186 74.2385 24.3186C74.5983 24.3186 74.9583 24.1814 75.233 23.9067L76.1799 22.9598L77.1267 23.9067C77.4014 24.1812 77.7614 24.3186 78.1212 24.3186C78.4811 24.3186 78.8411 24.1814 79.1157 23.9067C79.6649 23.3575 79.6649 22.4671 79.1157 21.9181L78.1687 20.971L79.1157 20.0239C79.6649 19.4747 79.6649 18.5843 79.1157 18.0353C78.5664 17.4861 77.6761 17.4861 77.1269 18.0353L76.1801 18.9822L75.2332 18.0353C74.6838 17.4861 73.7936 17.4861 73.2444 18.0353C72.6952 18.5845 72.6952 19.4749 73.2444 20.0239L74.1914 20.971L73.2444 21.9181C72.6948 22.4671 72.6948 23.3575 73.244 23.9067Z" fill="#111111"/>
</svg>
