<svg width="30" height="30" viewBox="0 0 30 30" fill="none" xmlns="http://www.w3.org/2000/svg">
<path fill-rule="evenodd" clip-rule="evenodd" d="M15 0C23.2843 0 30 6.71573 30 15C30 23.2843 23.2843 30 15 30C6.71573 30 0 23.2843 0 15C0 6.71573 6.71573 0 15 0ZM15.8983 6.11031C16.9183 6.2376 17.7425 6.48331 18.6468 6.92442C19.5363 7.35962 20.1055 7.77111 20.8586 8.52008C21.5643 9.22763 21.9557 9.76348 22.3707 10.5953C22.9489 11.7558 23.278 13.1354 23.3343 14.6541C23.3551 15.1721 23.3403 15.2876 23.2217 15.4356C22.9963 15.7228 22.5012 15.6754 22.3322 15.3528C22.2788 15.2462 22.264 15.1544 22.2462 14.7399C22.2165 14.1034 22.1721 13.692 22.0831 13.2005C21.7333 11.2733 20.8082 9.73387 19.3317 8.62962C18.1013 7.70598 16.8293 7.25598 15.163 7.15829C14.5997 7.12573 14.5019 7.10503 14.3744 7.00732C14.1371 6.82081 14.1253 6.38268 14.3536 6.17841C14.493 6.05109 14.5908 6.03334 15.0741 6.04814C15.3261 6.05702 15.6967 6.08662 15.8983 6.11031ZM9.12044 6.42959C9.22424 6.4651 9.38433 6.54798 9.47626 6.6072C10.0396 6.98023 11.608 8.98441 12.121 9.98505C12.4145 10.5564 12.5123 10.9797 12.4204 11.2936C12.3255 11.631 12.1684 11.8087 11.4657 12.3741C11.184 12.6021 10.9201 12.8359 10.8787 12.8981C10.7719 13.0521 10.6859 13.354 10.6859 13.5672C10.6889 14.0616 11.0091 14.9586 11.4301 15.6484C11.7562 16.1842 12.3403 16.871 12.9185 17.398C13.5975 18.0197 14.1964 18.443 14.8724 18.7775C15.7411 19.2097 16.2718 19.3193 16.6602 19.1387C16.7581 19.0943 16.8618 19.0351 16.8945 19.0085C16.9241 18.9818 17.1524 18.7035 17.4015 18.3957C17.8818 17.7917 17.9915 17.694 18.3206 17.5815C18.7386 17.4394 19.1656 17.4779 19.5955 17.697C19.9216 17.8657 20.6332 18.3068 21.0928 18.6265C21.6976 19.0499 22.9903 20.1038 23.1653 20.314C23.4736 20.6929 23.527 21.1784 23.3194 21.7143C23.1 22.2797 22.2461 23.3396 21.6501 23.7925C21.1105 24.2011 20.7281 24.3579 20.224 24.3816C19.809 24.4023 19.637 24.3668 19.1063 24.1477C14.9435 22.4336 11.6199 19.8759 8.98108 16.3618C7.60242 14.5264 6.55282 12.6228 5.83529 10.6482C5.41727 9.4966 5.39653 8.99628 5.74041 8.40716C5.88869 8.1585 6.52021 7.54271 6.97976 7.19932C7.74474 6.6309 8.09754 6.4207 8.37921 6.36151C8.57192 6.32005 8.90694 6.35261 9.12044 6.42959ZM16.103 8.2567C17.9027 8.52016 19.2962 9.35502 20.2094 10.7109C20.7224 11.4747 21.0426 12.3717 21.1523 13.3338C21.1908 13.6861 21.1908 14.3285 21.1493 14.4351C21.1107 14.5357 20.9862 14.6719 20.8794 14.7282C20.7638 14.7874 20.5178 14.7815 20.3814 14.7104C20.1531 14.595 20.0849 14.4114 20.0849 13.9141C20.0849 13.1473 19.8862 12.3391 19.5423 11.7115C19.1509 10.9951 18.5817 10.403 17.8879 9.99149C17.292 9.63624 16.4114 9.37278 15.6079 9.30766C15.3173 9.28395 15.1572 9.22475 15.0475 9.09746C14.8785 8.90502 14.8607 8.6445 15.003 8.42841C15.1572 8.1886 15.3944 8.15012 16.103 8.2567ZM16.7344 10.4917C17.3184 10.6161 17.7662 10.8381 18.1486 11.1963C18.6408 11.6611 18.9107 12.2236 19.0292 13.0318C19.1093 13.5587 19.0767 13.766 18.8899 13.9377C18.7149 14.0975 18.3918 14.1035 18.1961 13.9525C18.0538 13.8459 18.0093 13.7334 17.9767 13.4285C17.9381 13.0229 17.867 12.7387 17.7454 12.4752C17.4845 11.9157 17.025 11.6256 16.2482 11.5308C15.8834 11.4864 15.7737 11.445 15.6552 11.3059C15.4387 11.0483 15.5217 10.6309 15.8212 10.4769C15.9339 10.4207 15.9813 10.4148 16.2303 10.4296C16.3845 10.4384 16.6128 10.4651 16.7344 10.4917Z" fill="white"/>
</svg>
